<mxfile host="Electron" agent="Mozilla/5.0 (Macintosh; Intel Mac OS X 10_15_7) AppleWebKit/537.36 (KHTML, like Gecko) draw.io/26.2.2 Chrome/134.0.6998.178 Electron/35.1.2 Safari/537.36" version="26.2.2" pages="11">
  <diagram id="Oz4VHGN1nNMEp_QaT7qJ" name="overview">
    <mxGraphModel dx="1045" dy="1437" grid="1" gridSize="10" guides="1" tooltips="1" connect="1" arrows="1" fold="1" page="0" pageScale="1" pageWidth="850" pageHeight="1100" math="0" shadow="0">
      <root>
        <mxCell id="0" />
        <mxCell id="1" value="overall flow" style="" parent="0" />
        <mxCell id="lnrxjNFZU3uZvi3UB_ph-90" value="&lt;font style=&quot;font-size: 24px&quot;&gt;Supplier Cybersecurity Interaction Overview&lt;/font&gt;" style="text;html=1;strokeColor=none;fillColor=none;align=center;verticalAlign=middle;whiteSpace=wrap;rounded=0;" parent="1" vertex="1">
          <mxGeometry x="1359" y="430" width="531" height="30" as="geometry" />
        </mxCell>
        <mxCell id="zYXbqyecAeWLrRMbFMhl-80" value="" style="rounded=0;whiteSpace=wrap;html=1;strokeColor=none;fillColor=#D5E8D4;" parent="1" vertex="1">
          <mxGeometry x="1450" y="480" width="390" height="610" as="geometry" />
        </mxCell>
        <mxCell id="zYXbqyecAeWLrRMbFMhl-81" value="RFQ" style="text;html=1;align=center;verticalAlign=middle;resizable=0;points=[];autosize=1;" parent="1" vertex="1">
          <mxGeometry x="1620" y="1065" width="50" height="30" as="geometry" />
        </mxCell>
        <mxCell id="zYXbqyecAeWLrRMbFMhl-100" value="" style="rounded=0;whiteSpace=wrap;html=1;strokeColor=none;fillColor=#D4E1F5;" parent="1" vertex="1">
          <mxGeometry x="1840" y="480" width="270" height="610" as="geometry" />
        </mxCell>
        <mxCell id="zYXbqyecAeWLrRMbFMhl-103" value="development / production / post-production" style="text;html=1;align=center;verticalAlign=middle;resizable=0;points=[];autosize=1;" parent="1" vertex="1">
          <mxGeometry x="1850" y="1065" width="250" height="30" as="geometry" />
        </mxCell>
        <mxCell id="kFggetYUgjEE9dJbpSSE-1" value="" style="rounded=0;whiteSpace=wrap;html=1;strokeColor=none;fillColor=#F9F7ED;" parent="1" vertex="1">
          <mxGeometry x="1169.5" y="480" width="280.5" height="610" as="geometry" />
        </mxCell>
        <mxCell id="kFggetYUgjEE9dJbpSSE-4" value="RFI" style="text;html=1;align=center;verticalAlign=middle;resizable=0;points=[];autosize=1;" parent="1" vertex="1">
          <mxGeometry x="1289.75" y="1065" width="40" height="30" as="geometry" />
        </mxCell>
        <mxCell id="FAhH3swGNmsVXxzFHapu-16" style="edgeStyle=none;rounded=0;orthogonalLoop=1;jettySize=auto;html=1;labelBackgroundColor=none;strokeColor=#FF8000;strokeWidth=3;dashed=1;entryX=0;entryY=0.5;entryDx=0;entryDy=0;entryPerimeter=0;" parent="1" source="kFggetYUgjEE9dJbpSSE-6" target="kFggetYUgjEE9dJbpSSE-34" edge="1">
          <mxGeometry relative="1" as="geometry">
            <mxPoint x="1570" y="860" as="targetPoint" />
          </mxGeometry>
        </mxCell>
        <mxCell id="kFggetYUgjEE9dJbpSSE-6" value="vendor process - AVCDL&lt;br&gt;product mapping" style="shape=note;whiteSpace=wrap;html=1;backgroundOutline=1;darkOpacity=0.05;size=26;fillColor=#FFFFCC;dashed=1;" parent="1" vertex="1">
          <mxGeometry x="1200" y="510" width="79.5" height="100" as="geometry" />
        </mxCell>
        <mxCell id="kFggetYUgjEE9dJbpSSE-15" value="cybersecurity&lt;br&gt;bill of&lt;br&gt;materials&lt;br&gt;(SBOM)" style="shape=note;whiteSpace=wrap;html=1;backgroundOutline=1;darkOpacity=0.05;size=26;fillColor=#FFFFCC;" parent="1" vertex="1">
          <mxGeometry x="1890" y="895" width="79.5" height="100" as="geometry" />
        </mxCell>
        <mxCell id="kFggetYUgjEE9dJbpSSE-16" value="threat&lt;br&gt;analysis&lt;br&gt;risk&lt;br&gt;assessment&lt;br&gt;(TARA)" style="shape=note;whiteSpace=wrap;html=1;backgroundOutline=1;darkOpacity=0.05;size=26;gradientColor=#F19C99;gradientDirection=east;fillColor=#FFFFCC;" parent="1" vertex="1">
          <mxGeometry x="1890" y="590" width="79.5" height="100" as="geometry" />
        </mxCell>
        <mxCell id="FAhH3swGNmsVXxzFHapu-14" style="edgeStyle=none;rounded=0;orthogonalLoop=1;jettySize=auto;html=1;entryX=0;entryY=0.5;entryDx=0;entryDy=0;entryPerimeter=0;labelBackgroundColor=none;strokeColor=#FF8000;strokeWidth=3;" parent="1" source="kFggetYUgjEE9dJbpSSE-17" target="kFggetYUgjEE9dJbpSSE-34" edge="1">
          <mxGeometry relative="1" as="geometry" />
        </mxCell>
        <mxCell id="kFggetYUgjEE9dJbpSSE-17" value="supplier&lt;br&gt;self-reported&lt;br&gt;cybersecurity&lt;br&gt;process&lt;br&gt;maturity&lt;br&gt;(CMM)" style="shape=note;whiteSpace=wrap;html=1;backgroundOutline=1;darkOpacity=0.05;size=26;fillColor=#FFFFCC;" parent="1" vertex="1">
          <mxGeometry x="1200" y="810" width="79.5" height="100" as="geometry" />
        </mxCell>
        <mxCell id="FAhH3swGNmsVXxzFHapu-20" style="edgeStyle=none;rounded=0;orthogonalLoop=1;jettySize=auto;html=1;entryX=0;entryY=0.5;entryDx=0;entryDy=0;entryPerimeter=0;labelBackgroundColor=none;strokeColor=#FF8000;strokeWidth=3;exitX=0.999;exitY=0.496;exitDx=0;exitDy=0;exitPerimeter=0;" parent="1" source="kFggetYUgjEE9dJbpSSE-33" target="FAhH3swGNmsVXxzFHapu-18" edge="1">
          <mxGeometry relative="1" as="geometry" />
        </mxCell>
        <mxCell id="FAhH3swGNmsVXxzFHapu-21" style="edgeStyle=none;rounded=0;orthogonalLoop=1;jettySize=auto;html=1;entryX=0;entryY=0.5;entryDx=0;entryDy=0;entryPerimeter=0;labelBackgroundColor=none;strokeColor=#FF8000;strokeWidth=3;" parent="1" source="kFggetYUgjEE9dJbpSSE-33" target="kFggetYUgjEE9dJbpSSE-15" edge="1">
          <mxGeometry relative="1" as="geometry" />
        </mxCell>
        <mxCell id="FAhH3swGNmsVXxzFHapu-22" style="edgeStyle=none;rounded=0;orthogonalLoop=1;jettySize=auto;html=1;entryX=0;entryY=0.5;entryDx=0;entryDy=0;entryPerimeter=0;labelBackgroundColor=none;strokeColor=#FF8000;strokeWidth=3;" parent="1" source="kFggetYUgjEE9dJbpSSE-33" target="kFggetYUgjEE9dJbpSSE-16" edge="1">
          <mxGeometry relative="1" as="geometry" />
        </mxCell>
        <mxCell id="kFggetYUgjEE9dJbpSSE-33" value="cybersecurity&lt;br&gt;interface&lt;br&gt;agreement&lt;br&gt;(CIA)" style="shape=note;whiteSpace=wrap;html=1;backgroundOutline=1;darkOpacity=0.05;size=26;gradientColor=#F19C99;gradientDirection=east;fillColor=#FFFFCC;" parent="1" vertex="1">
          <mxGeometry x="1550" y="740" width="79.5" height="100" as="geometry" />
        </mxCell>
        <mxCell id="FAhH3swGNmsVXxzFHapu-17" style="edgeStyle=none;rounded=0;orthogonalLoop=1;jettySize=auto;html=1;entryX=0;entryY=0.5;entryDx=0;entryDy=0;entryPerimeter=0;labelBackgroundColor=none;strokeColor=#FF8000;strokeWidth=3;" parent="1" source="kFggetYUgjEE9dJbpSSE-34" target="kFggetYUgjEE9dJbpSSE-33" edge="1">
          <mxGeometry relative="1" as="geometry" />
        </mxCell>
        <mxCell id="kFggetYUgjEE9dJbpSSE-34" value="tailored&lt;br&gt;cybersecurity&lt;br&gt;requirements" style="shape=note;whiteSpace=wrap;html=1;backgroundOutline=1;darkOpacity=0.05;size=26;fillColor=#F19C99;" parent="1" vertex="1">
          <mxGeometry x="1409.5" y="740" width="79.5" height="100" as="geometry" />
        </mxCell>
        <mxCell id="FAhH3swGNmsVXxzFHapu-15" style="edgeStyle=none;rounded=0;orthogonalLoop=1;jettySize=auto;html=1;entryX=0;entryY=0.5;entryDx=0;entryDy=0;entryPerimeter=0;labelBackgroundColor=none;strokeColor=#FF8000;strokeWidth=3;" parent="1" source="kFggetYUgjEE9dJbpSSE-35" target="kFggetYUgjEE9dJbpSSE-34" edge="1">
          <mxGeometry relative="1" as="geometry" />
        </mxCell>
        <mxCell id="kFggetYUgjEE9dJbpSSE-35" value="supplier&lt;br&gt;cybersecurity&lt;br&gt;disclosure&lt;br&gt;statement&lt;br&gt;(AVCMDS)" style="shape=note;whiteSpace=wrap;html=1;backgroundOutline=1;darkOpacity=0.05;size=26;fillColor=#FFFFCC;" parent="1" vertex="1">
          <mxGeometry x="1200" y="660" width="79.5" height="100" as="geometry" />
        </mxCell>
        <mxCell id="FAhH3swGNmsVXxzFHapu-1" value="customer" style="rounded=0;whiteSpace=wrap;html=1;fillColor=#F19C99;gradientColor=none;gradientDirection=east;align=center;spacingLeft=6;strokeWidth=2;" parent="1" vertex="1">
          <mxGeometry x="1700" y="1160" width="150" height="30" as="geometry" />
        </mxCell>
        <mxCell id="FAhH3swGNmsVXxzFHapu-2" value="supplier" style="rounded=0;whiteSpace=wrap;html=1;fillColor=#FFFFCC;gradientColor=none;gradientDirection=east;align=center;spacingLeft=6;strokeWidth=2;" parent="1" vertex="1">
          <mxGeometry x="1400" y="1160" width="150" height="30" as="geometry" />
        </mxCell>
        <mxCell id="FAhH3swGNmsVXxzFHapu-3" value="supplier and/or customer" style="rounded=0;whiteSpace=wrap;html=1;fillColor=#FFFFCC;gradientColor=#F19C99;gradientDirection=east;align=center;spacingLeft=6;strokeWidth=2;" parent="1" vertex="1">
          <mxGeometry x="1550" y="1160" width="150" height="30" as="geometry" />
        </mxCell>
        <mxCell id="FAhH3swGNmsVXxzFHapu-7" value="" style="endArrow=none;html=1;rounded=0;strokeWidth=3;strokeColor=#FF00FF;" parent="1" edge="1">
          <mxGeometry width="50" height="50" relative="1" as="geometry">
            <mxPoint x="2110" y="1095" as="sourcePoint" />
            <mxPoint x="2110" y="1125" as="targetPoint" />
          </mxGeometry>
        </mxCell>
        <mxCell id="FAhH3swGNmsVXxzFHapu-8" value="" style="endArrow=none;html=1;rounded=0;strokeWidth=3;strokeColor=#FF00FF;" parent="1" edge="1">
          <mxGeometry width="50" height="50" relative="1" as="geometry">
            <mxPoint x="1169.5" y="1095" as="sourcePoint" />
            <mxPoint x="1169.5" y="1125" as="targetPoint" />
          </mxGeometry>
        </mxCell>
        <mxCell id="FAhH3swGNmsVXxzFHapu-9" value="" style="endArrow=none;html=1;rounded=0;strokeWidth=3;strokeColor=#FF00FF;labelBackgroundColor=none;" parent="1" edge="1">
          <mxGeometry width="50" height="50" relative="1" as="geometry">
            <mxPoint x="1840" y="1095" as="sourcePoint" />
            <mxPoint x="1840.23" y="1125" as="targetPoint" />
          </mxGeometry>
        </mxCell>
        <mxCell id="FAhH3swGNmsVXxzFHapu-11" value="" style="endArrow=none;html=1;rounded=0;strokeWidth=3;strokeColor=#FF00FF;startArrow=none;labelBackgroundColor=none;" parent="1" source="FAhH3swGNmsVXxzFHapu-4" edge="1">
          <mxGeometry width="50" height="50" relative="1" as="geometry">
            <mxPoint x="1170" y="1125" as="sourcePoint" />
            <mxPoint x="2110" y="1124" as="targetPoint" />
          </mxGeometry>
        </mxCell>
        <mxCell id="FAhH3swGNmsVXxzFHapu-5" value="&lt;font style=&quot;font-size: 24px&quot;&gt;Supplier Selection&lt;/font&gt;" style="text;html=1;strokeColor=none;fillColor=default;align=center;verticalAlign=middle;whiteSpace=wrap;rounded=0;labelBackgroundColor=#FFFFFF;" parent="1" vertex="1">
          <mxGeometry x="1410" y="1109" width="210" height="30" as="geometry" />
        </mxCell>
        <mxCell id="FAhH3swGNmsVXxzFHapu-13" value="" style="endArrow=none;html=1;rounded=0;strokeWidth=3;strokeColor=#FF00FF;startArrow=none;labelBackgroundColor=none;" parent="1" target="FAhH3swGNmsVXxzFHapu-5" edge="1">
          <mxGeometry width="50" height="50" relative="1" as="geometry">
            <mxPoint x="1169.9999999999995" y="1125" as="sourcePoint" />
            <mxPoint x="2240" y="1125" as="targetPoint" />
          </mxGeometry>
        </mxCell>
        <mxCell id="FAhH3swGNmsVXxzFHapu-18" value="service&lt;br&gt;level&lt;br&gt;agreement&lt;br&gt;(SLA)" style="shape=note;whiteSpace=wrap;html=1;backgroundOutline=1;darkOpacity=0.05;size=26;gradientColor=#F19C99;gradientDirection=east;fillColor=#FFFFCC;" parent="1" vertex="1">
          <mxGeometry x="1720" y="740" width="79.5" height="100" as="geometry" />
        </mxCell>
        <mxCell id="FAhH3swGNmsVXxzFHapu-4" value="&lt;font style=&quot;font-size: 24px&quot;&gt;AVCDL&lt;/font&gt;" style="text;html=1;strokeColor=none;fillColor=default;align=center;verticalAlign=middle;whiteSpace=wrap;rounded=0;labelBackgroundColor=#FFFFFF;" parent="1" vertex="1">
          <mxGeometry x="1926.25" y="1109" width="97.5" height="30" as="geometry" />
        </mxCell>
        <mxCell id="FAhH3swGNmsVXxzFHapu-23" value="" style="endArrow=none;html=1;rounded=0;strokeWidth=3;strokeColor=#FF00FF;startArrow=none;labelBackgroundColor=none;" parent="1" source="FAhH3swGNmsVXxzFHapu-5" target="FAhH3swGNmsVXxzFHapu-4" edge="1">
          <mxGeometry width="50" height="50" relative="1" as="geometry">
            <mxPoint x="1710" y="1124.1653543307089" as="sourcePoint" />
            <mxPoint x="2240" y="1125" as="targetPoint" />
          </mxGeometry>
        </mxCell>
        <mxCell id="1iOEiRLMbcxQpnQcd06d-2" style="rounded=0;orthogonalLoop=1;jettySize=auto;html=1;strokeWidth=3;strokeColor=#FF8000;entryX=0;entryY=0.5;entryDx=0;entryDy=0;entryPerimeter=0;" parent="1" source="1iOEiRLMbcxQpnQcd06d-1" target="kFggetYUgjEE9dJbpSSE-34" edge="1">
          <mxGeometry relative="1" as="geometry">
            <mxPoint x="1470" y="560" as="targetPoint" />
          </mxGeometry>
        </mxCell>
        <mxCell id="1iOEiRLMbcxQpnQcd06d-1" value="global&lt;br&gt;cybersecurity&lt;br&gt;requirements&lt;br&gt;catalog" style="shape=note;whiteSpace=wrap;html=1;backgroundOutline=1;darkOpacity=0.05;size=26;fillColor=#F19C99;" parent="1" vertex="1">
          <mxGeometry x="1200" y="950" width="79.5" height="100" as="geometry" />
        </mxCell>
        <mxCell id="TtvR3uoScDkevuimVfsm-2" value="SBOM relevant" parent="0" />
        <mxCell id="lnrxjNFZU3uZvi3UB_ph-1" value="process interaction" parent="0" visible="0" />
        <mxCell id="lnrxjNFZU3uZvi3UB_ph-4" style="edgeStyle=orthogonalEdgeStyle;rounded=0;orthogonalLoop=1;jettySize=auto;html=1;entryX=0;entryY=0.5;entryDx=0;entryDy=0;exitX=1;exitY=0.5;exitDx=0;exitDy=0;" parent="lnrxjNFZU3uZvi3UB_ph-1" source="lnrxjNFZU3uZvi3UB_ph-2" target="lnrxjNFZU3uZvi3UB_ph-3" edge="1">
          <mxGeometry relative="1" as="geometry">
            <Array as="points">
              <mxPoint x="2060" y="72" />
              <mxPoint x="2060" y="230" />
            </Array>
          </mxGeometry>
        </mxCell>
        <mxCell id="lnrxjNFZU3uZvi3UB_ph-6" style="edgeStyle=orthogonalEdgeStyle;rounded=0;orthogonalLoop=1;jettySize=auto;html=1;entryX=0;entryY=0.75;entryDx=0;entryDy=0;exitX=1;exitY=0.5;exitDx=0;exitDy=0;" parent="lnrxjNFZU3uZvi3UB_ph-1" source="lnrxjNFZU3uZvi3UB_ph-2" target="lnrxjNFZU3uZvi3UB_ph-5" edge="1">
          <mxGeometry relative="1" as="geometry">
            <Array as="points">
              <mxPoint x="2060" y="72" />
              <mxPoint x="2060" y="165" />
            </Array>
          </mxGeometry>
        </mxCell>
        <mxCell id="lnrxjNFZU3uZvi3UB_ph-18" style="edgeStyle=orthogonalEdgeStyle;rounded=0;orthogonalLoop=1;jettySize=auto;html=1;entryX=0;entryY=0.25;entryDx=0;entryDy=0;exitX=1;exitY=0.5;exitDx=0;exitDy=0;" parent="lnrxjNFZU3uZvi3UB_ph-1" source="lnrxjNFZU3uZvi3UB_ph-2" target="lnrxjNFZU3uZvi3UB_ph-7" edge="1">
          <mxGeometry relative="1" as="geometry">
            <Array as="points">
              <mxPoint x="2030" y="72" />
            </Array>
          </mxGeometry>
        </mxCell>
        <mxCell id="lnrxjNFZU3uZvi3UB_ph-23" style="edgeStyle=orthogonalEdgeStyle;rounded=0;orthogonalLoop=1;jettySize=auto;html=1;entryX=0;entryY=0.5;entryDx=0;entryDy=0;exitX=1;exitY=0.5;exitDx=0;exitDy=0;" parent="lnrxjNFZU3uZvi3UB_ph-1" source="lnrxjNFZU3uZvi3UB_ph-5" target="lnrxjNFZU3uZvi3UB_ph-9" edge="1">
          <mxGeometry relative="1" as="geometry">
            <Array as="points">
              <mxPoint x="2240" y="150" />
              <mxPoint x="2240" y="320" />
            </Array>
            <mxPoint x="2360" y="480" as="targetPoint" />
          </mxGeometry>
        </mxCell>
        <mxCell id="lnrxjNFZU3uZvi3UB_ph-2" value="List of Approved Tools and Components" style="rounded=0;whiteSpace=wrap;html=1;" parent="lnrxjNFZU3uZvi3UB_ph-1" vertex="1">
          <mxGeometry x="1920" y="42" width="120" height="60" as="geometry" />
        </mxCell>
        <mxCell id="lnrxjNFZU3uZvi3UB_ph-3" value="List of Tools and Components Used" style="rounded=0;whiteSpace=wrap;html=1;fillColor=#fff2cc;strokeColor=#d6b656;" parent="lnrxjNFZU3uZvi3UB_ph-1" vertex="1">
          <mxGeometry x="2100" y="200" width="120" height="60" as="geometry" />
        </mxCell>
        <mxCell id="lnrxjNFZU3uZvi3UB_ph-14" style="edgeStyle=orthogonalEdgeStyle;rounded=0;orthogonalLoop=1;jettySize=auto;html=1;entryX=0;entryY=0.25;entryDx=0;entryDy=0;exitX=1;exitY=0.5;exitDx=0;exitDy=0;" parent="lnrxjNFZU3uZvi3UB_ph-1" source="lnrxjNFZU3uZvi3UB_ph-5" target="lnrxjNFZU3uZvi3UB_ph-10" edge="1">
          <mxGeometry relative="1" as="geometry">
            <Array as="points">
              <mxPoint x="2240" y="150" />
              <mxPoint x="2240" y="275" />
            </Array>
          </mxGeometry>
        </mxCell>
        <mxCell id="lnrxjNFZU3uZvi3UB_ph-19" style="edgeStyle=orthogonalEdgeStyle;rounded=0;orthogonalLoop=1;jettySize=auto;html=1;entryX=0;entryY=0.5;entryDx=0;entryDy=0;exitX=1;exitY=0.5;exitDx=0;exitDy=0;" parent="lnrxjNFZU3uZvi3UB_ph-1" source="lnrxjNFZU3uZvi3UB_ph-5" target="lnrxjNFZU3uZvi3UB_ph-11" edge="1">
          <mxGeometry relative="1" as="geometry">
            <Array as="points">
              <mxPoint x="2240" y="150" />
              <mxPoint x="2240" y="230" />
            </Array>
          </mxGeometry>
        </mxCell>
        <mxCell id="lnrxjNFZU3uZvi3UB_ph-5" value="CV - PV&lt;br&gt;Cross-reference Document" style="rounded=0;whiteSpace=wrap;html=1;" parent="lnrxjNFZU3uZvi3UB_ph-1" vertex="1">
          <mxGeometry x="2100" y="120" width="120" height="60" as="geometry" />
        </mxCell>
        <mxCell id="lnrxjNFZU3uZvi3UB_ph-7" value="Archive Manifest" style="rounded=0;whiteSpace=wrap;html=1;fillColor=#fff2cc;strokeColor=#d6b656;" parent="lnrxjNFZU3uZvi3UB_ph-1" vertex="1">
          <mxGeometry x="2460" y="57" width="120" height="60" as="geometry" />
        </mxCell>
        <mxCell id="lnrxjNFZU3uZvi3UB_ph-13" style="edgeStyle=orthogonalEdgeStyle;rounded=0;orthogonalLoop=1;jettySize=auto;html=1;entryX=0;entryY=0.75;entryDx=0;entryDy=0;" parent="lnrxjNFZU3uZvi3UB_ph-1" source="lnrxjNFZU3uZvi3UB_ph-9" target="lnrxjNFZU3uZvi3UB_ph-10" edge="1">
          <mxGeometry relative="1" as="geometry">
            <Array as="points">
              <mxPoint x="2430" y="320" />
              <mxPoint x="2430" y="305" />
            </Array>
          </mxGeometry>
        </mxCell>
        <mxCell id="lnrxjNFZU3uZvi3UB_ph-9" value="Cybersecurity Monitoring Plan" style="rounded=0;whiteSpace=wrap;html=1;" parent="lnrxjNFZU3uZvi3UB_ph-1" vertex="1">
          <mxGeometry x="2270" y="290" width="120" height="60" as="geometry" />
        </mxCell>
        <mxCell id="lnrxjNFZU3uZvi3UB_ph-10" value="Incident Response Plan" style="rounded=0;whiteSpace=wrap;html=1;" parent="lnrxjNFZU3uZvi3UB_ph-1" vertex="1">
          <mxGeometry x="2460" y="260" width="120" height="60" as="geometry" />
        </mxCell>
        <mxCell id="lnrxjNFZU3uZvi3UB_ph-21" style="edgeStyle=orthogonalEdgeStyle;rounded=0;orthogonalLoop=1;jettySize=auto;html=1;entryX=0;entryY=0.75;entryDx=0;entryDy=0;exitX=1;exitY=0.5;exitDx=0;exitDy=0;" parent="lnrxjNFZU3uZvi3UB_ph-1" source="lnrxjNFZU3uZvi3UB_ph-15" target="lnrxjNFZU3uZvi3UB_ph-7" edge="1">
          <mxGeometry relative="1" as="geometry">
            <Array as="points">
              <mxPoint x="2430" y="150" />
              <mxPoint x="2430" y="102" />
            </Array>
            <mxPoint x="2450" y="-20" as="sourcePoint" />
          </mxGeometry>
        </mxCell>
        <mxCell id="eEKUyIhuzSQ4ukCI-L0V-2" style="edgeStyle=orthogonalEdgeStyle;rounded=0;orthogonalLoop=1;jettySize=auto;html=1;entryX=0;entryY=0.75;entryDx=0;entryDy=0;" parent="lnrxjNFZU3uZvi3UB_ph-1" source="lnrxjNFZU3uZvi3UB_ph-11" target="lnrxjNFZU3uZvi3UB_ph-12" edge="1">
          <mxGeometry relative="1" as="geometry" />
        </mxCell>
        <mxCell id="lnrxjNFZU3uZvi3UB_ph-11" value="Manifest&lt;br&gt;Generation" style="rounded=0;whiteSpace=wrap;html=1;" parent="lnrxjNFZU3uZvi3UB_ph-1" vertex="1">
          <mxGeometry x="2270" y="200" width="120" height="60" as="geometry" />
        </mxCell>
        <mxCell id="lnrxjNFZU3uZvi3UB_ph-12" value="Software&lt;br&gt;Deployment&lt;br&gt;Report" style="rounded=0;whiteSpace=wrap;html=1;" parent="lnrxjNFZU3uZvi3UB_ph-1" vertex="1">
          <mxGeometry x="2460" y="185" width="120" height="60" as="geometry" />
        </mxCell>
        <mxCell id="lnrxjNFZU3uZvi3UB_ph-16" style="edgeStyle=orthogonalEdgeStyle;rounded=0;orthogonalLoop=1;jettySize=auto;html=1;entryX=0;entryY=0.25;entryDx=0;entryDy=0;exitX=1;exitY=0.25;exitDx=0;exitDy=0;strokeColor=#FF8000;" parent="lnrxjNFZU3uZvi3UB_ph-1" source="lnrxjNFZU3uZvi3UB_ph-15" target="lnrxjNFZU3uZvi3UB_ph-5" edge="1">
          <mxGeometry relative="1" as="geometry">
            <Array as="points">
              <mxPoint x="2410" y="135" />
              <mxPoint x="2410" y="100" />
              <mxPoint x="2080" y="100" />
              <mxPoint x="2080" y="135" />
            </Array>
          </mxGeometry>
        </mxCell>
        <mxCell id="lnrxjNFZU3uZvi3UB_ph-17" style="edgeStyle=orthogonalEdgeStyle;rounded=0;orthogonalLoop=1;jettySize=auto;html=1;entryX=0;entryY=0.25;entryDx=0;entryDy=0;exitX=1;exitY=0.5;exitDx=0;exitDy=0;" parent="lnrxjNFZU3uZvi3UB_ph-1" source="lnrxjNFZU3uZvi3UB_ph-15" target="lnrxjNFZU3uZvi3UB_ph-12" edge="1">
          <mxGeometry relative="1" as="geometry">
            <Array as="points">
              <mxPoint x="2430" y="150" />
              <mxPoint x="2430" y="200" />
            </Array>
            <mxPoint x="2750" y="160" as="sourcePoint" />
          </mxGeometry>
        </mxCell>
        <mxCell id="lnrxjNFZU3uZvi3UB_ph-15" value="Code Signing" style="rounded=0;whiteSpace=wrap;html=1;" parent="lnrxjNFZU3uZvi3UB_ph-1" vertex="1">
          <mxGeometry x="2270" y="120" width="120" height="60" as="geometry" />
        </mxCell>
      </root>
    </mxGraphModel>
  </diagram>
  <diagram id="rQ9H9MS-a7ZFymZDKJLg" name="guidance documents">
    <mxGraphModel dx="3400" dy="886" grid="1" gridSize="10" guides="1" tooltips="1" connect="1" arrows="1" fold="1" page="0" pageScale="1" pageWidth="850" pageHeight="1100" math="0" shadow="0">
      <root>
        <mxCell id="0" />
        <mxCell id="agBU0TSlbPoSnO_xw3bp-1" value="background (draft)" parent="0" visible="0" />
        <mxCell id="agBU0TSlbPoSnO_xw3bp-2" value="&lt;font color=&quot;#b8b8b8&quot; style=&quot;font-size: 300px;&quot;&gt;D R A F T&lt;/font&gt;" style="text;html=1;strokeColor=none;fillColor=none;align=center;verticalAlign=middle;whiteSpace=wrap;rounded=0;rotation=-40;" parent="agBU0TSlbPoSnO_xw3bp-1" vertex="1">
          <mxGeometry x="-520" y="1630" width="1420" height="260" as="geometry" />
        </mxCell>
        <mxCell id="gFGqt--6p3804Z2vQM63-2" style="edgeStyle=orthogonalEdgeStyle;rounded=0;orthogonalLoop=1;jettySize=auto;html=1;entryX=0;entryY=0.5;entryDx=0;entryDy=0;entryPerimeter=0;" parent="agBU0TSlbPoSnO_xw3bp-1" source="gFGqt--6p3804Z2vQM63-1" target="O_3UiS-khIgKn4jSDo1a-54" edge="1">
          <mxGeometry relative="1" as="geometry" />
        </mxCell>
        <mxCell id="gFGqt--6p3804Z2vQM63-3" style="edgeStyle=orthogonalEdgeStyle;rounded=0;orthogonalLoop=1;jettySize=auto;html=1;entryX=0;entryY=0.5;entryDx=0;entryDy=0;entryPerimeter=0;" parent="agBU0TSlbPoSnO_xw3bp-1" source="gFGqt--6p3804Z2vQM63-1" target="O_3UiS-khIgKn4jSDo1a-54" edge="1">
          <mxGeometry relative="1" as="geometry" />
        </mxCell>
        <mxCell id="1" value="foreground" parent="0" />
        <mxCell id="gFGqt--6p3804Z2vQM63-10" value="" style="rounded=0;whiteSpace=wrap;html=1;strokeColor=#000000;fontSize=16;fillColor=none;" parent="1" vertex="1">
          <mxGeometry x="-160" y="2500" width="470" height="100" as="geometry" />
        </mxCell>
        <mxCell id="gFGqt--6p3804Z2vQM63-11" value="" style="rounded=0;whiteSpace=wrap;html=1;strokeColor=#000000;fontSize=16;fillColor=none;" parent="1" vertex="1">
          <mxGeometry x="320" y="2500" width="560" height="100" as="geometry" />
        </mxCell>
        <mxCell id="O_3UiS-khIgKn4jSDo1a-111" value="" style="rounded=0;whiteSpace=wrap;html=1;fillColor=none;strokeWidth=3;dashed=1;" parent="1" vertex="1">
          <mxGeometry x="-510" y="1110" width="1390" height="1360" as="geometry" />
        </mxCell>
        <mxCell id="oiBGQWg1c94UKVCeVXAx-9" value="" style="rounded=0;whiteSpace=wrap;html=1;fillColor=none;strokeWidth=3;dashed=1;" parent="1" vertex="1">
          <mxGeometry x="-340.75" y="1610" width="260.75" height="140" as="geometry" />
        </mxCell>
        <mxCell id="O_3UiS-khIgKn4jSDo1a-130" value="" style="rounded=0;whiteSpace=wrap;html=1;fillColor=none;strokeWidth=3;dashed=1;" parent="1" vertex="1">
          <mxGeometry x="409.5" y="1420" width="370.5" height="400" as="geometry" />
        </mxCell>
        <mxCell id="O_3UiS-khIgKn4jSDo1a-104" value="" style="rounded=0;whiteSpace=wrap;html=1;fillColor=none;strokeWidth=3;dashed=1;" parent="1" vertex="1">
          <mxGeometry x="270" y="2140" width="260" height="140" as="geometry" />
        </mxCell>
        <mxCell id="O_3UiS-khIgKn4jSDo1a-100" value="" style="rounded=0;whiteSpace=wrap;html=1;fillColor=none;strokeWidth=3;dashed=1;" parent="1" vertex="1">
          <mxGeometry x="-341.25" y="1450" width="260.75" height="140" as="geometry" />
        </mxCell>
        <mxCell id="O_3UiS-khIgKn4jSDo1a-107" value="" style="rounded=0;whiteSpace=wrap;html=1;fillColor=none;strokeWidth=3;dashed=1;" parent="1" vertex="1">
          <mxGeometry x="-341.25" y="1290" width="260.75" height="140" as="geometry" />
        </mxCell>
        <mxCell id="O_3UiS-khIgKn4jSDo1a-1" value="&lt;font style=&quot;font-size: 24px&quot;&gt;Supplier Cybersecurity Guidance Documents&lt;/font&gt;" style="text;html=1;strokeColor=none;fillColor=none;align=center;verticalAlign=middle;whiteSpace=wrap;rounded=0;" parent="1" vertex="1">
          <mxGeometry x="-70.5" y="1070" width="531" height="30" as="geometry" />
        </mxCell>
        <mxCell id="O_3UiS-khIgKn4jSDo1a-43" style="edgeStyle=none;rounded=0;orthogonalLoop=1;jettySize=auto;html=1;labelBackgroundColor=none;strokeColor=#FF8000;strokeWidth=3;dashed=1;entryX=0;entryY=0.5;entryDx=0;entryDy=0;entryPerimeter=0;" parent="1" source="O_3UiS-khIgKn4jSDo1a-44" target="O_3UiS-khIgKn4jSDo1a-54" edge="1">
          <mxGeometry relative="1" as="geometry">
            <mxPoint x="369.5" y="1770" as="targetPoint" />
          </mxGeometry>
        </mxCell>
        <mxCell id="O_3UiS-khIgKn4jSDo1a-44" value="vendor process - AVCDL&lt;br&gt;product mapping" style="shape=note;whiteSpace=wrap;html=1;backgroundOutline=1;darkOpacity=0.05;size=26;fillColor=#FFFFCC;dashed=1;" parent="1" vertex="1">
          <mxGeometry x="-178.5" y="1630" width="79.5" height="100" as="geometry" />
        </mxCell>
        <mxCell id="O_3UiS-khIgKn4jSDo1a-45" value="cybersecurity&lt;br&gt;bill of&lt;br&gt;materials&lt;br&gt;(SBOM)" style="shape=note;whiteSpace=wrap;html=1;backgroundOutline=1;darkOpacity=0.05;size=26;fillColor=#FFFFCC;" parent="1" vertex="1">
          <mxGeometry x="620.5" y="2330" width="79.5" height="100" as="geometry" />
        </mxCell>
        <mxCell id="O_3UiS-khIgKn4jSDo1a-46" value="threat&lt;br&gt;analysis&lt;br&gt;risk&lt;br&gt;assessment&lt;br&gt;(TARA)" style="shape=note;whiteSpace=wrap;html=1;backgroundOutline=1;darkOpacity=0.05;size=26;gradientColor=#F19C99;gradientDirection=east;fillColor=#FFFFCC;" parent="1" vertex="1">
          <mxGeometry x="679.5" y="1570" width="79.5" height="100" as="geometry" />
        </mxCell>
        <mxCell id="O_3UiS-khIgKn4jSDo1a-47" style="edgeStyle=none;rounded=0;orthogonalLoop=1;jettySize=auto;html=1;entryX=0;entryY=0.5;entryDx=0;entryDy=0;entryPerimeter=0;labelBackgroundColor=none;strokeColor=#FF8000;strokeWidth=3;" parent="1" source="O_3UiS-khIgKn4jSDo1a-48" target="O_3UiS-khIgKn4jSDo1a-54" edge="1">
          <mxGeometry relative="1" as="geometry" />
        </mxCell>
        <mxCell id="O_3UiS-khIgKn4jSDo1a-116" style="edgeStyle=none;rounded=0;orthogonalLoop=1;jettySize=auto;html=1;entryX=0;entryY=0.5;entryDx=0;entryDy=0;entryPerimeter=0;strokeColor=#FF8000;strokeWidth=3;" parent="1" source="O_3UiS-khIgKn4jSDo1a-48" target="O_3UiS-khIgKn4jSDo1a-89" edge="1">
          <mxGeometry relative="1" as="geometry" />
        </mxCell>
        <mxCell id="O_3UiS-khIgKn4jSDo1a-48" value="supplier&lt;br&gt;self-reported&lt;br&gt;cybersecurity&lt;br&gt;process&lt;br&gt;maturity&lt;br&gt;(CMM)" style="shape=note;whiteSpace=wrap;html=1;backgroundOutline=1;darkOpacity=0.05;size=26;fillColor=#FFFFCC;" parent="1" vertex="1">
          <mxGeometry x="-180.5" y="1310" width="79.5" height="100" as="geometry" />
        </mxCell>
        <mxCell id="O_3UiS-khIgKn4jSDo1a-49" style="edgeStyle=none;rounded=0;orthogonalLoop=1;jettySize=auto;html=1;entryX=0;entryY=0.5;entryDx=0;entryDy=0;entryPerimeter=0;labelBackgroundColor=none;strokeColor=#FF8000;strokeWidth=3;exitX=0.999;exitY=0.496;exitDx=0;exitDy=0;exitPerimeter=0;" parent="1" source="O_3UiS-khIgKn4jSDo1a-52" target="O_3UiS-khIgKn4jSDo1a-66" edge="1">
          <mxGeometry relative="1" as="geometry">
            <mxPoint x="610.5" y="2130" as="targetPoint" />
          </mxGeometry>
        </mxCell>
        <mxCell id="O_3UiS-khIgKn4jSDo1a-50" style="edgeStyle=none;rounded=0;orthogonalLoop=1;jettySize=auto;html=1;entryX=0;entryY=0.5;entryDx=0;entryDy=0;entryPerimeter=0;labelBackgroundColor=none;strokeColor=#FF8000;strokeWidth=3;" parent="1" source="O_3UiS-khIgKn4jSDo1a-52" target="O_3UiS-khIgKn4jSDo1a-45" edge="1">
          <mxGeometry relative="1" as="geometry" />
        </mxCell>
        <mxCell id="O_3UiS-khIgKn4jSDo1a-51" style="edgeStyle=none;rounded=0;orthogonalLoop=1;jettySize=auto;html=1;entryX=0;entryY=0.5;entryDx=0;entryDy=0;entryPerimeter=0;labelBackgroundColor=none;strokeColor=#FF8000;strokeWidth=3;" parent="1" source="O_3UiS-khIgKn4jSDo1a-52" target="O_3UiS-khIgKn4jSDo1a-46" edge="1">
          <mxGeometry relative="1" as="geometry" />
        </mxCell>
        <mxCell id="O_3UiS-khIgKn4jSDo1a-95" style="edgeStyle=none;rounded=0;orthogonalLoop=1;jettySize=auto;html=1;strokeColor=#FF8000;strokeWidth=3;entryX=0;entryY=0.5;entryDx=0;entryDy=0;entryPerimeter=0;" parent="1" source="O_3UiS-khIgKn4jSDo1a-52" target="O_3UiS-khIgKn4jSDo1a-93" edge="1">
          <mxGeometry relative="1" as="geometry">
            <mxPoint x="800" y="1180" as="targetPoint" />
          </mxGeometry>
        </mxCell>
        <mxCell id="O_3UiS-khIgKn4jSDo1a-52" value="cybersecurity&lt;br&gt;interface&lt;br&gt;agreement&lt;br&gt;(CIA)" style="shape=note;whiteSpace=wrap;html=1;backgroundOutline=1;darkOpacity=0.05;size=26;gradientColor=#F19C99;gradientDirection=east;fillColor=#FFFFCC;" parent="1" vertex="1">
          <mxGeometry x="430" y="2160" width="79.5" height="100" as="geometry" />
        </mxCell>
        <mxCell id="O_3UiS-khIgKn4jSDo1a-53" style="edgeStyle=none;rounded=0;orthogonalLoop=1;jettySize=auto;html=1;entryX=0;entryY=0.5;entryDx=0;entryDy=0;entryPerimeter=0;labelBackgroundColor=none;strokeColor=#FF8000;strokeWidth=3;" parent="1" source="O_3UiS-khIgKn4jSDo1a-54" target="O_3UiS-khIgKn4jSDo1a-52" edge="1">
          <mxGeometry relative="1" as="geometry" />
        </mxCell>
        <mxCell id="O_3UiS-khIgKn4jSDo1a-54" value="tailored&lt;br&gt;cybersecurity&lt;br&gt;requirements" style="shape=note;whiteSpace=wrap;html=1;backgroundOutline=1;darkOpacity=0.05;size=26;fillColor=#F19C99;" parent="1" vertex="1">
          <mxGeometry x="130" y="1630" width="79.5" height="100" as="geometry" />
        </mxCell>
        <mxCell id="O_3UiS-khIgKn4jSDo1a-55" style="edgeStyle=none;rounded=0;orthogonalLoop=1;jettySize=auto;html=1;entryX=0;entryY=0.5;entryDx=0;entryDy=0;entryPerimeter=0;labelBackgroundColor=none;strokeColor=#FF8000;strokeWidth=3;" parent="1" source="O_3UiS-khIgKn4jSDo1a-56" target="O_3UiS-khIgKn4jSDo1a-54" edge="1">
          <mxGeometry relative="1" as="geometry" />
        </mxCell>
        <mxCell id="O_3UiS-khIgKn4jSDo1a-56" value="supplier&lt;br&gt;cybersecurity&lt;br&gt;disclosure&lt;br&gt;statement&lt;br&gt;(AVCMDS)" style="shape=note;whiteSpace=wrap;html=1;backgroundOutline=1;darkOpacity=0.05;size=26;fillColor=#FFFFCC;" parent="1" vertex="1">
          <mxGeometry x="-180.5" y="1470" width="79.5" height="100" as="geometry" />
        </mxCell>
        <mxCell id="O_3UiS-khIgKn4jSDo1a-57" value="customer" style="rounded=0;whiteSpace=wrap;html=1;fillColor=#F19C99;gradientColor=none;gradientDirection=east;align=center;spacingLeft=6;strokeWidth=2;" parent="1" vertex="1">
          <mxGeometry x="150" y="2535" width="150" height="30" as="geometry" />
        </mxCell>
        <mxCell id="O_3UiS-khIgKn4jSDo1a-58" value="supplier" style="rounded=0;whiteSpace=wrap;html=1;fillColor=#FFFFCC;gradientColor=none;gradientDirection=east;align=center;spacingLeft=6;strokeWidth=2;" parent="1" vertex="1">
          <mxGeometry x="-150" y="2535" width="150" height="30" as="geometry" />
        </mxCell>
        <mxCell id="O_3UiS-khIgKn4jSDo1a-59" value="supplier and/or customer" style="rounded=0;whiteSpace=wrap;html=1;fillColor=#FFFFCC;gradientColor=#F19C99;gradientDirection=east;align=center;spacingLeft=6;strokeWidth=2;" parent="1" vertex="1">
          <mxGeometry y="2535" width="150" height="30" as="geometry" />
        </mxCell>
        <mxCell id="O_3UiS-khIgKn4jSDo1a-66" value="service&lt;br&gt;level&lt;br&gt;agreement&lt;br&gt;(SLA)" style="shape=note;whiteSpace=wrap;html=1;backgroundOutline=1;darkOpacity=0.05;size=26;gradientColor=#F19C99;gradientDirection=east;fillColor=#FFFFCC;" parent="1" vertex="1">
          <mxGeometry x="620" y="2160" width="79.5" height="100" as="geometry" />
        </mxCell>
        <mxCell id="O_3UiS-khIgKn4jSDo1a-69" style="rounded=0;orthogonalLoop=1;jettySize=auto;html=1;strokeWidth=3;strokeColor=#FF8000;entryX=0;entryY=0.5;entryDx=0;entryDy=0;entryPerimeter=0;" parent="1" source="O_3UiS-khIgKn4jSDo1a-70" target="O_3UiS-khIgKn4jSDo1a-54" edge="1">
          <mxGeometry relative="1" as="geometry">
            <mxPoint x="269.5" y="1470" as="targetPoint" />
          </mxGeometry>
        </mxCell>
        <mxCell id="O_3UiS-khIgKn4jSDo1a-70" value="global&lt;br&gt;cybersecurity&lt;br&gt;requirements&lt;br&gt;catalog" style="shape=note;whiteSpace=wrap;html=1;backgroundOutline=1;darkOpacity=0.05;size=26;fillColor=#F19C99;" parent="1" vertex="1">
          <mxGeometry x="-60" y="2030" width="79.5" height="100" as="geometry" />
        </mxCell>
        <mxCell id="O_3UiS-khIgKn4jSDo1a-80" style="edgeStyle=none;rounded=0;orthogonalLoop=1;jettySize=auto;html=1;entryX=0;entryY=0.5;entryDx=0;entryDy=0;entryPerimeter=0;strokeColor=#6600CC;strokeWidth=3;" parent="1" source="O_3UiS-khIgKn4jSDo1a-71" target="O_3UiS-khIgKn4jSDo1a-70" edge="1">
          <mxGeometry relative="1" as="geometry" />
        </mxCell>
        <mxCell id="O_3UiS-khIgKn4jSDo1a-71" value="Global&lt;br&gt;Security&lt;br&gt;Requirements" style="shape=note;whiteSpace=wrap;html=1;backgroundOutline=1;darkOpacity=0.05;size=26;fillColor=#d5e8d4;strokeColor=#82b366;" parent="1" vertex="1">
          <mxGeometry x="-200" y="2100" width="79.5" height="100" as="geometry" />
        </mxCell>
        <mxCell id="O_3UiS-khIgKn4jSDo1a-97" style="edgeStyle=none;rounded=0;orthogonalLoop=1;jettySize=auto;html=1;entryX=0;entryY=0.5;entryDx=0;entryDy=0;entryPerimeter=0;strokeColor=#6600CC;strokeWidth=3;" parent="1" source="O_3UiS-khIgKn4jSDo1a-72" target="O_3UiS-khIgKn4jSDo1a-96" edge="1">
          <mxGeometry relative="1" as="geometry" />
        </mxCell>
        <mxCell id="O_3UiS-khIgKn4jSDo1a-72" value="Security&lt;br&gt;Requirements&lt;br&gt;Taxonomy" style="shape=note;whiteSpace=wrap;html=1;backgroundOutline=1;darkOpacity=0.05;size=26;fillColor=#d5e8d4;strokeColor=#82b366;" parent="1" vertex="1">
          <mxGeometry x="-330" y="1950" width="79.5" height="100" as="geometry" />
        </mxCell>
        <mxCell id="O_3UiS-khIgKn4jSDo1a-76" style="rounded=0;orthogonalLoop=1;jettySize=auto;html=1;entryX=0;entryY=0.5;entryDx=0;entryDy=0;entryPerimeter=0;strokeWidth=3;strokeColor=#6600CC;" parent="1" source="O_3UiS-khIgKn4jSDo1a-73" target="O_3UiS-khIgKn4jSDo1a-48" edge="1">
          <mxGeometry relative="1" as="geometry" />
        </mxCell>
        <mxCell id="O_3UiS-khIgKn4jSDo1a-73" value="AVCDL&lt;br&gt;vendor&lt;br&gt;CMM&lt;br&gt;template" style="shape=internalStorage;whiteSpace=wrap;html=1;backgroundOutline=1;fillColor=#d5e8d4;strokeColor=#000000;gradientColor=#97d077;" parent="1" vertex="1">
          <mxGeometry x="-321.5" y="1310" width="80" height="100" as="geometry" />
        </mxCell>
        <mxCell id="O_3UiS-khIgKn4jSDo1a-77" style="edgeStyle=none;rounded=0;orthogonalLoop=1;jettySize=auto;html=1;strokeColor=#6600CC;strokeWidth=3;" parent="1" source="O_3UiS-khIgKn4jSDo1a-74" target="O_3UiS-khIgKn4jSDo1a-56" edge="1">
          <mxGeometry relative="1" as="geometry">
            <mxPoint x="-0.5" y="1520" as="targetPoint" />
          </mxGeometry>
        </mxCell>
        <mxCell id="O_3UiS-khIgKn4jSDo1a-74" value="AVCMDS&lt;br&gt;worksheet&lt;br&gt;template" style="shape=internalStorage;whiteSpace=wrap;html=1;backgroundOutline=1;fillColor=#d5e8d4;strokeColor=#000000;gradientColor=#97d077;" parent="1" vertex="1">
          <mxGeometry x="-320.5" y="1470" width="80" height="100" as="geometry" />
        </mxCell>
        <mxCell id="O_3UiS-khIgKn4jSDo1a-78" style="edgeStyle=none;rounded=0;orthogonalLoop=1;jettySize=auto;html=1;entryX=0;entryY=0.5;entryDx=0;entryDy=0;entryPerimeter=0;strokeColor=#6600CC;strokeWidth=3;" parent="1" source="O_3UiS-khIgKn4jSDo1a-75" target="O_3UiS-khIgKn4jSDo1a-52" edge="1">
          <mxGeometry relative="1" as="geometry" />
        </mxCell>
        <mxCell id="O_3UiS-khIgKn4jSDo1a-75" value="Cybersecurity&lt;br&gt;Interface&lt;br&gt;Agreement&lt;br&gt;template" style="shape=internalStorage;whiteSpace=wrap;html=1;backgroundOutline=1;fillColor=#d5e8d4;strokeColor=#000000;gradientColor=#97d077;" parent="1" vertex="1">
          <mxGeometry x="289.5" y="2160" width="80" height="100" as="geometry" />
        </mxCell>
        <mxCell id="O_3UiS-khIgKn4jSDo1a-82" style="edgeStyle=none;rounded=0;orthogonalLoop=1;jettySize=auto;html=1;entryX=0;entryY=0.5;entryDx=0;entryDy=0;strokeColor=#6600CC;strokeWidth=3;" parent="1" source="O_3UiS-khIgKn4jSDo1a-81" target="O_3UiS-khIgKn4jSDo1a-104" edge="1">
          <mxGeometry relative="1" as="geometry" />
        </mxCell>
        <mxCell id="O_3UiS-khIgKn4jSDo1a-81" value="Understanding Cybersecurity Interface&lt;br&gt;Agreements" style="shape=note;whiteSpace=wrap;html=1;backgroundOutline=1;darkOpacity=0.05;size=26;fillColor=#e1d5e7;strokeColor=#9673a6;" parent="1" vertex="1">
          <mxGeometry x="110" y="2090" width="79.5" height="100" as="geometry" />
        </mxCell>
        <mxCell id="O_3UiS-khIgKn4jSDo1a-84" style="edgeStyle=none;rounded=0;orthogonalLoop=1;jettySize=auto;html=1;strokeColor=#6600CC;strokeWidth=3;entryX=0;entryY=0.5;entryDx=0;entryDy=0;" parent="1" source="O_3UiS-khIgKn4jSDo1a-83" target="oiBGQWg1c94UKVCeVXAx-9" edge="1">
          <mxGeometry relative="1" as="geometry" />
        </mxCell>
        <mxCell id="O_3UiS-khIgKn4jSDo1a-83" value="Understanding Supply Chain&lt;br&gt;Process&lt;br&gt;Mapping" style="shape=note;whiteSpace=wrap;html=1;backgroundOutline=1;darkOpacity=0.05;size=26;fillColor=#e1d5e7;strokeColor=#9673a6;" parent="1" vertex="1">
          <mxGeometry x="-480" y="1630" width="79.5" height="100" as="geometry" />
        </mxCell>
        <mxCell id="O_3UiS-khIgKn4jSDo1a-87" style="edgeStyle=none;rounded=0;orthogonalLoop=1;jettySize=auto;html=1;entryX=0;entryY=0.5;entryDx=0;entryDy=0;entryPerimeter=0;strokeColor=#6600CC;strokeWidth=3;" parent="1" source="O_3UiS-khIgKn4jSDo1a-85" target="O_3UiS-khIgKn4jSDo1a-44" edge="1">
          <mxGeometry relative="1" as="geometry" />
        </mxCell>
        <mxCell id="O_3UiS-khIgKn4jSDo1a-85" value="vendor process - AVCDL product mapping template" style="shape=internalStorage;whiteSpace=wrap;html=1;backgroundOutline=1;fillColor=#d5e8d4;strokeColor=#000000;gradientColor=#97d077;" parent="1" vertex="1">
          <mxGeometry x="-320" y="1630" width="80" height="100" as="geometry" />
        </mxCell>
        <mxCell id="O_3UiS-khIgKn4jSDo1a-90" style="edgeStyle=none;rounded=0;orthogonalLoop=1;jettySize=auto;html=1;strokeColor=#6600CC;strokeWidth=3;entryX=0;entryY=0.5;entryDx=0;entryDy=0;entryPerimeter=0;" parent="1" source="O_3UiS-khIgKn4jSDo1a-88" target="O_3UiS-khIgKn4jSDo1a-89" edge="1">
          <mxGeometry relative="1" as="geometry" />
        </mxCell>
        <mxCell id="O_3UiS-khIgKn4jSDo1a-88" value="AVCDL&lt;br&gt;vendor&lt;br&gt;CMM&lt;br&gt;progress&lt;br&gt;template" style="shape=internalStorage;whiteSpace=wrap;html=1;backgroundOutline=1;fillColor=#d5e8d4;strokeColor=#000000;gradientColor=#97d077;" parent="1" vertex="1">
          <mxGeometry x="-80.5" y="1130" width="80" height="100" as="geometry" />
        </mxCell>
        <mxCell id="O_3UiS-khIgKn4jSDo1a-89" value="vendor&lt;br&gt;CMM&lt;br&gt;progress" style="shape=note;whiteSpace=wrap;html=1;backgroundOutline=1;darkOpacity=0.05;size=26;fillColor=#F19C99;" parent="1" vertex="1">
          <mxGeometry x="79.5" y="1130" width="79.5" height="100" as="geometry" />
        </mxCell>
        <mxCell id="O_3UiS-khIgKn4jSDo1a-94" style="edgeStyle=none;rounded=0;orthogonalLoop=1;jettySize=auto;html=1;entryX=0;entryY=0.5;entryDx=0;entryDy=0;entryPerimeter=0;strokeColor=#6600CC;strokeWidth=3;" parent="1" source="O_3UiS-khIgKn4jSDo1a-92" target="O_3UiS-khIgKn4jSDo1a-93" edge="1">
          <mxGeometry relative="1" as="geometry" />
        </mxCell>
        <mxCell id="O_3UiS-khIgKn4jSDo1a-92" value="Cybersecurity&lt;br&gt;Interface&lt;br&gt;Agreement&lt;br&gt;summary&lt;br&gt;template" style="shape=internalStorage;whiteSpace=wrap;html=1;backgroundOutline=1;fillColor=#d5e8d4;strokeColor=#000000;gradientColor=#97d077;" parent="1" vertex="1">
          <mxGeometry x="620" y="1885" width="80" height="100" as="geometry" />
        </mxCell>
        <mxCell id="O_3UiS-khIgKn4jSDo1a-93" value="Cybersecurity&lt;br&gt;Interface&lt;br&gt;Agreement&lt;br&gt;Summary" style="shape=note;whiteSpace=wrap;html=1;backgroundOutline=1;darkOpacity=0.05;size=26;fillColor=#F19C99;" parent="1" vertex="1">
          <mxGeometry x="770" y="1885" width="79.5" height="100" as="geometry" />
        </mxCell>
        <mxCell id="O_3UiS-khIgKn4jSDo1a-98" style="edgeStyle=none;rounded=0;orthogonalLoop=1;jettySize=auto;html=1;entryX=0;entryY=0.5;entryDx=0;entryDy=0;entryPerimeter=0;strokeColor=#6600CC;strokeWidth=3;" parent="1" source="O_3UiS-khIgKn4jSDo1a-96" target="O_3UiS-khIgKn4jSDo1a-70" edge="1">
          <mxGeometry relative="1" as="geometry" />
        </mxCell>
        <mxCell id="O_3UiS-khIgKn4jSDo1a-96" value="cybersecurity requirements per&lt;br&gt;taxonomy" style="shape=note;whiteSpace=wrap;html=1;backgroundOutline=1;darkOpacity=0.05;size=26;fillColor=#dae8fc;strokeColor=#6c8ebf;" parent="1" vertex="1">
          <mxGeometry x="-200" y="1950" width="79.5" height="100" as="geometry" />
        </mxCell>
        <mxCell id="O_3UiS-khIgKn4jSDo1a-101" style="edgeStyle=none;rounded=0;orthogonalLoop=1;jettySize=auto;html=1;strokeColor=#b85450;strokeWidth=3;fillColor=#f8cecc;" parent="1" source="O_3UiS-khIgKn4jSDo1a-99" target="O_3UiS-khIgKn4jSDo1a-100" edge="1">
          <mxGeometry relative="1" as="geometry" />
        </mxCell>
        <mxCell id="O_3UiS-khIgKn4jSDo1a-99" value="AVCMDS - autonomous vehicle cybersecurity manufacturer disclosure statement" style="shape=note;whiteSpace=wrap;html=1;backgroundOutline=1;darkOpacity=0.05;size=26;fillColor=#CCCCCC;strokeColor=#000000;" parent="1" vertex="1">
          <mxGeometry x="-640.5" y="1470" width="79.5" height="100" as="geometry" />
        </mxCell>
        <mxCell id="O_3UiS-khIgKn4jSDo1a-102" value="yours, mine, and ours - the AVCDL and cybersecurity interface agreements" style="shape=note;whiteSpace=wrap;html=1;backgroundOutline=1;darkOpacity=0.05;size=26;fillColor=#CCCCCC;strokeColor=#000000;" parent="1" vertex="1">
          <mxGeometry x="-640" y="2160" width="79.5" height="100" as="geometry" />
        </mxCell>
        <mxCell id="O_3UiS-khIgKn4jSDo1a-103" style="edgeStyle=none;rounded=0;orthogonalLoop=1;jettySize=auto;html=1;strokeColor=#b85450;strokeWidth=3;fillColor=#f8cecc;" parent="1" source="O_3UiS-khIgKn4jSDo1a-102" target="O_3UiS-khIgKn4jSDo1a-104" edge="1">
          <mxGeometry relative="1" as="geometry" />
        </mxCell>
        <mxCell id="O_3UiS-khIgKn4jSDo1a-105" value="where are&lt;br&gt;you at -&lt;br&gt;level setting supplier cybersecurity maturity" style="shape=note;whiteSpace=wrap;html=1;backgroundOutline=1;darkOpacity=0.05;size=26;fillColor=#CCCCCC;strokeColor=#000000;" parent="1" vertex="1">
          <mxGeometry x="-640.5" y="1310" width="79.5" height="100" as="geometry" />
        </mxCell>
        <mxCell id="O_3UiS-khIgKn4jSDo1a-106" style="edgeStyle=none;rounded=0;orthogonalLoop=1;jettySize=auto;html=1;strokeColor=#b85450;strokeWidth=3;fillColor=#f8cecc;" parent="1" source="O_3UiS-khIgKn4jSDo1a-105" target="O_3UiS-khIgKn4jSDo1a-107" edge="1">
          <mxGeometry relative="1" as="geometry" />
        </mxCell>
        <mxCell id="O_3UiS-khIgKn4jSDo1a-109" value="turtles all the way down - security at every level" style="shape=note;whiteSpace=wrap;html=1;backgroundOutline=1;darkOpacity=0.05;size=26;fillColor=#CCCCCC;strokeColor=#000000;" parent="1" vertex="1">
          <mxGeometry x="-640.5" y="1740" width="79.5" height="100" as="geometry" />
        </mxCell>
        <mxCell id="O_3UiS-khIgKn4jSDo1a-110" style="edgeStyle=none;rounded=0;orthogonalLoop=1;jettySize=auto;html=1;strokeColor=#b85450;strokeWidth=3;fillColor=#f8cecc;entryX=0;entryY=0.5;entryDx=0;entryDy=0;" parent="1" source="O_3UiS-khIgKn4jSDo1a-109" target="O_3UiS-khIgKn4jSDo1a-111" edge="1">
          <mxGeometry relative="1" as="geometry">
            <mxPoint x="-670" y="1570" as="targetPoint" />
          </mxGeometry>
        </mxCell>
        <mxCell id="O_3UiS-khIgKn4jSDo1a-113" style="edgeStyle=none;rounded=0;orthogonalLoop=1;jettySize=auto;html=1;entryX=0;entryY=0.5;entryDx=0;entryDy=0;entryPerimeter=0;strokeColor=#6600CC;strokeWidth=3;" parent="1" source="O_3UiS-khIgKn4jSDo1a-112" target="O_3UiS-khIgKn4jSDo1a-45" edge="1">
          <mxGeometry relative="1" as="geometry" />
        </mxCell>
        <mxCell id="O_3UiS-khIgKn4jSDo1a-112" value="Software Bill of Materials Lifecycle" style="shape=note;whiteSpace=wrap;html=1;backgroundOutline=1;darkOpacity=0.05;size=26;fillColor=#e1d5e7;strokeColor=#9673a6;" parent="1" vertex="1">
          <mxGeometry x="481" y="2330" width="79.5" height="100" as="geometry" />
        </mxCell>
        <mxCell id="O_3UiS-khIgKn4jSDo1a-118" style="edgeStyle=none;rounded=0;orthogonalLoop=1;jettySize=auto;html=1;strokeColor=#6600CC;strokeWidth=3;entryX=0;entryY=0.5;entryDx=0;entryDy=0;" parent="1" source="O_3UiS-khIgKn4jSDo1a-117" target="O_3UiS-khIgKn4jSDo1a-130" edge="1">
          <mxGeometry relative="1" as="geometry">
            <mxPoint x="639" y="795" as="targetPoint" />
          </mxGeometry>
        </mxCell>
        <mxCell id="O_3UiS-khIgKn4jSDo1a-117" value="Understanding TARA in an AVCDL Context" style="shape=note;whiteSpace=wrap;html=1;backgroundOutline=1;darkOpacity=0.05;size=26;fillColor=#e1d5e7;strokeColor=#9673a6;" parent="1" vertex="1">
          <mxGeometry x="289.5" y="1570" width="79.5" height="100" as="geometry" />
        </mxCell>
        <mxCell id="O_3UiS-khIgKn4jSDo1a-126" style="edgeStyle=none;rounded=0;orthogonalLoop=1;jettySize=auto;html=1;entryX=0;entryY=0.5;entryDx=0;entryDy=0;entryPerimeter=0;strokeColor=#6600CC;strokeWidth=3;" parent="1" source="O_3UiS-khIgKn4jSDo1a-121" target="O_3UiS-khIgKn4jSDo1a-46" edge="1">
          <mxGeometry relative="1" as="geometry" />
        </mxCell>
        <mxCell id="O_3UiS-khIgKn4jSDo1a-121" value="Threat Modeling Report" style="shape=note;whiteSpace=wrap;html=1;backgroundOutline=1;darkOpacity=0.05;size=26;fillColor=#d5e8d4;strokeColor=#82b366;" parent="1" vertex="1">
          <mxGeometry x="429.5" y="1440" width="79.5" height="100" as="geometry" />
        </mxCell>
        <mxCell id="O_3UiS-khIgKn4jSDo1a-125" style="edgeStyle=none;rounded=0;orthogonalLoop=1;jettySize=auto;html=1;entryX=0;entryY=0.5;entryDx=0;entryDy=0;entryPerimeter=0;strokeColor=#6600CC;strokeWidth=3;" parent="1" source="O_3UiS-khIgKn4jSDo1a-122" target="O_3UiS-khIgKn4jSDo1a-46" edge="1">
          <mxGeometry relative="1" as="geometry" />
        </mxCell>
        <mxCell id="O_3UiS-khIgKn4jSDo1a-122" value="Threat&lt;br&gt;Report" style="shape=note;whiteSpace=wrap;html=1;backgroundOutline=1;darkOpacity=0.05;size=26;fillColor=#d5e8d4;strokeColor=#82b366;" parent="1" vertex="1">
          <mxGeometry x="429.5" y="1700" width="79.5" height="100" as="geometry" />
        </mxCell>
        <mxCell id="O_3UiS-khIgKn4jSDo1a-124" style="edgeStyle=none;rounded=0;orthogonalLoop=1;jettySize=auto;html=1;entryX=0;entryY=0.5;entryDx=0;entryDy=0;entryPerimeter=0;strokeColor=#6600CC;strokeWidth=3;" parent="1" source="O_3UiS-khIgKn4jSDo1a-123" target="O_3UiS-khIgKn4jSDo1a-46" edge="1">
          <mxGeometry relative="1" as="geometry" />
        </mxCell>
        <mxCell id="O_3UiS-khIgKn4jSDo1a-123" value="Ranked - Risked&lt;br&gt;Threat&lt;br&gt;Report" style="shape=note;whiteSpace=wrap;html=1;backgroundOutline=1;darkOpacity=0.05;size=26;fillColor=#d5e8d4;strokeColor=#82b366;" parent="1" vertex="1">
          <mxGeometry x="429.5" y="1570" width="79.5" height="100" as="geometry" />
        </mxCell>
        <mxCell id="O_3UiS-khIgKn4jSDo1a-127" value="blog post" style="rounded=0;whiteSpace=wrap;html=1;fillColor=#CCCCCC;gradientColor=none;gradientDirection=east;align=center;spacingLeft=6;strokeWidth=2;" parent="1" vertex="1">
          <mxGeometry x="-630" y="2525" width="150" height="30" as="geometry" />
        </mxCell>
        <mxCell id="O_3UiS-khIgKn4jSDo1a-128" value="elaboration document" style="rounded=0;whiteSpace=wrap;html=1;fillColor=#E1D5E7;gradientColor=none;gradientDirection=east;align=center;spacingLeft=6;strokeWidth=2;" parent="1" vertex="1">
          <mxGeometry x="-480" y="2525" width="150" height="30" as="geometry" />
        </mxCell>
        <mxCell id="O_3UiS-khIgKn4jSDo1a-129" value="secondary document" style="rounded=0;whiteSpace=wrap;html=1;fillColor=#D5E8D4;gradientColor=none;gradientDirection=east;align=center;spacingLeft=6;strokeWidth=2;" parent="1" vertex="1">
          <mxGeometry x="-330" y="2525" width="150" height="30" as="geometry" />
        </mxCell>
        <mxCell id="O_3UiS-khIgKn4jSDo1a-131" style="edgeStyle=none;rounded=0;orthogonalLoop=1;jettySize=auto;html=1;labelBackgroundColor=none;strokeColor=#FF8000;strokeWidth=3;" parent="1" edge="1">
          <mxGeometry relative="1" as="geometry">
            <mxPoint x="328.75" y="2549" as="sourcePoint" />
            <mxPoint x="378.75" y="2549" as="targetPoint" />
          </mxGeometry>
        </mxCell>
        <mxCell id="O_3UiS-khIgKn4jSDo1a-132" value="&lt;font style=&quot;font-size: 14px;&quot;&gt;supplier document&lt;/font&gt;" style="text;html=1;align=left;verticalAlign=middle;resizable=0;points=[];autosize=1;strokeColor=none;fillColor=none;" parent="1" vertex="1">
          <mxGeometry x="383.75" y="2535" width="140" height="30" as="geometry" />
        </mxCell>
        <mxCell id="O_3UiS-khIgKn4jSDo1a-133" value="&lt;font style=&quot;font-size: 14px;&quot;&gt;AVCDL guidance&lt;/font&gt;" style="text;html=1;align=left;verticalAlign=middle;resizable=0;points=[];autosize=1;strokeColor=none;fillColor=none;" parent="1" vertex="1">
          <mxGeometry x="569" y="2535" width="130" height="30" as="geometry" />
        </mxCell>
        <mxCell id="O_3UiS-khIgKn4jSDo1a-134" style="edgeStyle=none;rounded=0;orthogonalLoop=1;jettySize=auto;html=1;strokeColor=#6600CC;strokeWidth=3;" parent="1" edge="1">
          <mxGeometry relative="1" as="geometry">
            <mxPoint x="514" y="2549" as="sourcePoint" />
            <mxPoint x="564" y="2549" as="targetPoint" />
          </mxGeometry>
        </mxCell>
        <mxCell id="O_3UiS-khIgKn4jSDo1a-135" value="&lt;font style=&quot;font-size: 14px;&quot;&gt;AVCDL blog post&lt;/font&gt;" style="text;html=1;align=left;verticalAlign=middle;resizable=0;points=[];autosize=1;strokeColor=none;fillColor=none;" parent="1" vertex="1">
          <mxGeometry x="750" y="2535" width="130" height="30" as="geometry" />
        </mxCell>
        <mxCell id="O_3UiS-khIgKn4jSDo1a-136" style="edgeStyle=none;rounded=0;orthogonalLoop=1;jettySize=auto;html=1;strokeColor=#b85450;strokeWidth=3;fillColor=#f8cecc;" parent="1" edge="1">
          <mxGeometry relative="1" as="geometry">
            <mxPoint x="695" y="2549" as="sourcePoint" />
            <mxPoint x="745" y="2549" as="targetPoint" />
          </mxGeometry>
        </mxCell>
        <mxCell id="O_3UiS-khIgKn4jSDo1a-137" value="reference document" style="rounded=0;whiteSpace=wrap;html=1;fillColor=#DAE8FC;gradientColor=none;gradientDirection=east;align=center;spacingLeft=6;strokeWidth=2;" parent="1" vertex="1">
          <mxGeometry x="-550" y="2555" width="150" height="30" as="geometry" />
        </mxCell>
        <mxCell id="oiBGQWg1c94UKVCeVXAx-2" style="edgeStyle=none;rounded=0;orthogonalLoop=1;jettySize=auto;html=1;entryX=0;entryY=0.5;entryDx=0;entryDy=0;entryPerimeter=0;strokeColor=#6600CC;strokeWidth=3;fontSize=14;" parent="1" source="oiBGQWg1c94UKVCeVXAx-1" target="O_3UiS-khIgKn4jSDo1a-54" edge="1">
          <mxGeometry relative="1" as="geometry" />
        </mxCell>
        <mxCell id="oiBGQWg1c94UKVCeVXAx-1" value="Element-level&lt;br&gt;Security&lt;br&gt;Requirements" style="shape=note;whiteSpace=wrap;html=1;backgroundOutline=1;darkOpacity=0.05;size=28;fillColor=#d5e8d4;strokeColor=#82b366;" parent="1" vertex="1">
          <mxGeometry x="-60" y="1720" width="79.5" height="100" as="geometry" />
        </mxCell>
        <mxCell id="oiBGQWg1c94UKVCeVXAx-4" style="edgeStyle=none;rounded=0;orthogonalLoop=1;jettySize=auto;html=1;entryX=0;entryY=0.5;entryDx=0;entryDy=0;strokeColor=#6600CC;strokeWidth=3;fontSize=14;" parent="1" source="oiBGQWg1c94UKVCeVXAx-3" target="O_3UiS-khIgKn4jSDo1a-104" edge="1">
          <mxGeometry relative="1" as="geometry" />
        </mxCell>
        <mxCell id="oiBGQWg1c94UKVCeVXAx-3" value="Incident&lt;br&gt;Response&lt;br&gt;Plan" style="shape=note;whiteSpace=wrap;html=1;backgroundOutline=1;darkOpacity=0.05;size=26;fillColor=#d5e8d4;strokeColor=#82b366;" parent="1" vertex="1">
          <mxGeometry x="110" y="2230" width="79.5" height="100" as="geometry" />
        </mxCell>
        <mxCell id="oiBGQWg1c94UKVCeVXAx-6" style="edgeStyle=none;rounded=0;orthogonalLoop=1;jettySize=auto;html=1;entryX=0;entryY=0.5;entryDx=0;entryDy=0;strokeColor=#6600CC;strokeWidth=3;fontSize=14;" parent="1" source="oiBGQWg1c94UKVCeVXAx-5" target="O_3UiS-khIgKn4jSDo1a-107" edge="1">
          <mxGeometry relative="1" as="geometry" />
        </mxCell>
        <mxCell id="oiBGQWg1c94UKVCeVXAx-5" value="Supplier Self-reported Cybersecurity Maturity Assessment" style="shape=note;whiteSpace=wrap;html=1;backgroundOutline=1;darkOpacity=0.05;size=26;fillColor=#d5e8d4;strokeColor=#82b366;" parent="1" vertex="1">
          <mxGeometry x="-480.5" y="1240" width="79.5" height="100" as="geometry" />
        </mxCell>
        <mxCell id="oiBGQWg1c94UKVCeVXAx-8" style="edgeStyle=none;rounded=0;orthogonalLoop=1;jettySize=auto;html=1;entryX=0;entryY=0.5;entryDx=0;entryDy=0;strokeColor=#6600CC;strokeWidth=3;fontSize=14;" parent="1" source="oiBGQWg1c94UKVCeVXAx-7" target="O_3UiS-khIgKn4jSDo1a-100" edge="1">
          <mxGeometry relative="1" as="geometry" />
        </mxCell>
        <mxCell id="oiBGQWg1c94UKVCeVXAx-7" value="Autonomous Vehicle Cybersecurity Manufacturer Disclosure Statement" style="shape=note;whiteSpace=wrap;html=1;backgroundOutline=1;darkOpacity=0.05;size=26;fillColor=#d5e8d4;strokeColor=#82b366;" parent="1" vertex="1">
          <mxGeometry x="-480.5" y="1380" width="79.5" height="100" as="geometry" />
        </mxCell>
        <mxCell id="oiBGQWg1c94UKVCeVXAx-10" value="templates" style="rounded=0;whiteSpace=wrap;html=1;fillColor=#d5e8d4;gradientColor=#97d077;gradientDirection=south;align=center;spacingLeft=6;strokeWidth=2;strokeColor=#000000;" parent="1" vertex="1">
          <mxGeometry x="-400" y="2555" width="150" height="30" as="geometry" />
        </mxCell>
        <mxCell id="gFGqt--6p3804Z2vQM63-4" style="rounded=0;orthogonalLoop=1;jettySize=auto;html=1;entryX=0;entryY=0.5;entryDx=0;entryDy=0;entryPerimeter=0;strokeColor=#6600CC;strokeWidth=3;" parent="1" source="gFGqt--6p3804Z2vQM63-1" target="O_3UiS-khIgKn4jSDo1a-54" edge="1">
          <mxGeometry relative="1" as="geometry" />
        </mxCell>
        <mxCell id="gFGqt--6p3804Z2vQM63-1" value="Element Cybersecurity Relevancy" style="shape=note;whiteSpace=wrap;html=1;backgroundOutline=1;darkOpacity=0.05;size=26;fillColor=#d5e8d4;strokeColor=#82b366;" parent="1" vertex="1">
          <mxGeometry x="-60" y="1850" width="79.5" height="100" as="geometry" />
        </mxCell>
        <mxCell id="gFGqt--6p3804Z2vQM63-7" value="&lt;font style=&quot;font-size: 16px;&quot;&gt;Flow&lt;/font&gt;" style="text;html=1;strokeColor=none;fillColor=default;align=center;verticalAlign=middle;whiteSpace=wrap;rounded=0;" parent="1" vertex="1">
          <mxGeometry x="563.75" y="2490" width="70" height="30" as="geometry" />
        </mxCell>
        <mxCell id="gFGqt--6p3804Z2vQM63-8" value="" style="rounded=0;whiteSpace=wrap;html=1;strokeColor=#000000;fontSize=16;fillColor=none;" parent="1" vertex="1">
          <mxGeometry x="-640" y="2500" width="470" height="100" as="geometry" />
        </mxCell>
        <mxCell id="gFGqt--6p3804Z2vQM63-6" value="&lt;span style=&quot;font-size: 16px;&quot;&gt;Reference Document Type&lt;/span&gt;" style="text;html=1;strokeColor=none;fillColor=default;align=center;verticalAlign=middle;whiteSpace=wrap;rounded=0;" parent="1" vertex="1">
          <mxGeometry x="-510" y="2490" width="210" height="30" as="geometry" />
        </mxCell>
        <mxCell id="gFGqt--6p3804Z2vQM63-9" style="edgeStyle=none;rounded=0;orthogonalLoop=1;jettySize=auto;html=1;exitX=0.5;exitY=1;exitDx=0;exitDy=0;strokeColor=#6600CC;strokeWidth=3;fontSize=16;" parent="1" source="gFGqt--6p3804Z2vQM63-8" target="gFGqt--6p3804Z2vQM63-8" edge="1">
          <mxGeometry relative="1" as="geometry" />
        </mxCell>
        <mxCell id="gFGqt--6p3804Z2vQM63-5" value="&lt;font style=&quot;font-size: 16px;&quot;&gt;Created Document Owner&lt;/font&gt;" style="text;html=1;strokeColor=none;fillColor=default;align=center;verticalAlign=middle;whiteSpace=wrap;rounded=0;" parent="1" vertex="1">
          <mxGeometry x="-25" y="2490" width="200" height="30" as="geometry" />
        </mxCell>
        <mxCell id="iT8p8xs1pKqzGyHlG0rP-1" value="Cybersecurity Interface Agreement" style="shape=note;whiteSpace=wrap;html=1;backgroundOutline=1;darkOpacity=0.05;size=26;fillColor=#d5e8d4;strokeColor=#82b366;" parent="1" vertex="1">
          <mxGeometry x="110" y="2350" width="79.5" height="100" as="geometry" />
        </mxCell>
        <mxCell id="iT8p8xs1pKqzGyHlG0rP-2" style="edgeStyle=none;rounded=0;orthogonalLoop=1;jettySize=auto;html=1;entryX=0;entryY=0.5;entryDx=0;entryDy=0;strokeColor=#6600CC;strokeWidth=3;fontSize=14;" parent="1" source="iT8p8xs1pKqzGyHlG0rP-1" target="O_3UiS-khIgKn4jSDo1a-104" edge="1">
          <mxGeometry relative="1" as="geometry">
            <mxPoint x="-10" y="2270" as="targetPoint" />
          </mxGeometry>
        </mxCell>
      </root>
    </mxGraphModel>
  </diagram>
  <diagram id="t--FmaymcGb4JCIWkoLg" name="CMM">
    <mxGraphModel dx="2843" dy="827" grid="1" gridSize="10" guides="1" tooltips="1" connect="1" arrows="1" fold="1" page="0" pageScale="1" pageWidth="850" pageHeight="1100" math="0" shadow="0">
      <root>
        <mxCell id="0" />
        <mxCell id="1" parent="0" />
        <mxCell id="00YGUxzGZhHuR3-IFol--1" value="" style="rounded=0;whiteSpace=wrap;html=1;fillColor=none;strokeWidth=3;dashed=1;" vertex="1" parent="1">
          <mxGeometry x="-341.25" y="1290" width="260.75" height="140" as="geometry" />
        </mxCell>
        <mxCell id="00YGUxzGZhHuR3-IFol--2" style="edgeStyle=none;rounded=0;orthogonalLoop=1;jettySize=auto;html=1;entryX=0;entryY=0.5;entryDx=0;entryDy=0;entryPerimeter=0;strokeColor=#FF8000;strokeWidth=3;" edge="1" parent="1" source="00YGUxzGZhHuR3-IFol--3" target="00YGUxzGZhHuR3-IFol--8">
          <mxGeometry relative="1" as="geometry" />
        </mxCell>
        <mxCell id="00YGUxzGZhHuR3-IFol--3" value="supplier&lt;br&gt;self-reported&lt;br&gt;cybersecurity&lt;br&gt;process&lt;br&gt;maturity&lt;br&gt;(CMM)" style="shape=note;whiteSpace=wrap;html=1;backgroundOutline=1;darkOpacity=0.05;size=26;fillColor=#FFFFCC;" vertex="1" parent="1">
          <mxGeometry x="-180.5" y="1310" width="79.5" height="100" as="geometry" />
        </mxCell>
        <mxCell id="00YGUxzGZhHuR3-IFol--4" style="rounded=0;orthogonalLoop=1;jettySize=auto;html=1;entryX=0;entryY=0.5;entryDx=0;entryDy=0;entryPerimeter=0;strokeWidth=3;strokeColor=#6600CC;" edge="1" parent="1" source="00YGUxzGZhHuR3-IFol--5" target="00YGUxzGZhHuR3-IFol--3">
          <mxGeometry relative="1" as="geometry" />
        </mxCell>
        <mxCell id="00YGUxzGZhHuR3-IFol--5" value="AVCDL&lt;br&gt;vendor&lt;br&gt;CMM&lt;br&gt;template" style="shape=internalStorage;whiteSpace=wrap;html=1;backgroundOutline=1;fillColor=#d5e8d4;strokeColor=#000000;gradientColor=#97d077;" vertex="1" parent="1">
          <mxGeometry x="-321.5" y="1310" width="80" height="100" as="geometry" />
        </mxCell>
        <mxCell id="00YGUxzGZhHuR3-IFol--6" style="edgeStyle=none;rounded=0;orthogonalLoop=1;jettySize=auto;html=1;strokeColor=#6600CC;strokeWidth=3;entryX=0;entryY=0.5;entryDx=0;entryDy=0;entryPerimeter=0;" edge="1" parent="1" source="00YGUxzGZhHuR3-IFol--7" target="00YGUxzGZhHuR3-IFol--8">
          <mxGeometry relative="1" as="geometry" />
        </mxCell>
        <mxCell id="00YGUxzGZhHuR3-IFol--7" value="AVCDL&lt;br&gt;vendor&lt;br&gt;CMM&lt;br&gt;progress&lt;br&gt;template" style="shape=internalStorage;whiteSpace=wrap;html=1;backgroundOutline=1;fillColor=#d5e8d4;strokeColor=#000000;gradientColor=#97d077;" vertex="1" parent="1">
          <mxGeometry x="-80.5" y="1130" width="80" height="100" as="geometry" />
        </mxCell>
        <mxCell id="00YGUxzGZhHuR3-IFol--8" value="vendor&lt;br&gt;CMM&lt;br&gt;progress" style="shape=note;whiteSpace=wrap;html=1;backgroundOutline=1;darkOpacity=0.05;size=26;fillColor=#F19C99;" vertex="1" parent="1">
          <mxGeometry x="79.5" y="1130" width="79.5" height="100" as="geometry" />
        </mxCell>
        <mxCell id="00YGUxzGZhHuR3-IFol--9" value="where are&lt;br&gt;you at -&lt;br&gt;level setting supplier cybersecurity maturity" style="shape=note;whiteSpace=wrap;html=1;backgroundOutline=1;darkOpacity=0.05;size=26;fillColor=#CCCCCC;strokeColor=#000000;" vertex="1" parent="1">
          <mxGeometry x="-640.5" y="1310" width="79.5" height="100" as="geometry" />
        </mxCell>
        <mxCell id="00YGUxzGZhHuR3-IFol--10" style="edgeStyle=none;rounded=0;orthogonalLoop=1;jettySize=auto;html=1;strokeColor=#b85450;strokeWidth=3;fillColor=#f8cecc;" edge="1" parent="1" source="00YGUxzGZhHuR3-IFol--9" target="00YGUxzGZhHuR3-IFol--1">
          <mxGeometry relative="1" as="geometry" />
        </mxCell>
        <mxCell id="00YGUxzGZhHuR3-IFol--11" style="edgeStyle=none;rounded=0;orthogonalLoop=1;jettySize=auto;html=1;entryX=0;entryY=0.5;entryDx=0;entryDy=0;strokeColor=#6600CC;strokeWidth=3;fontSize=14;" edge="1" parent="1" source="00YGUxzGZhHuR3-IFol--12" target="00YGUxzGZhHuR3-IFol--1">
          <mxGeometry relative="1" as="geometry" />
        </mxCell>
        <mxCell id="00YGUxzGZhHuR3-IFol--12" value="Supplier Self-reported Cybersecurity Maturity Assessment" style="shape=note;whiteSpace=wrap;html=1;backgroundOutline=1;darkOpacity=0.05;size=26;fillColor=#d5e8d4;strokeColor=#82b366;" vertex="1" parent="1">
          <mxGeometry x="-480.5" y="1240" width="79.5" height="100" as="geometry" />
        </mxCell>
      </root>
    </mxGraphModel>
  </diagram>
  <diagram id="hk34RnKE6TGMewBUqXhh" name="AVCMDS">
    <mxGraphModel dx="2443" dy="1227" grid="1" gridSize="10" guides="1" tooltips="1" connect="1" arrows="1" fold="1" page="0" pageScale="1" pageWidth="850" pageHeight="1100" math="0" shadow="0">
      <root>
        <mxCell id="0" />
        <mxCell id="1" parent="0" />
        <mxCell id="DfqyUwT9Ra00rR1DSbKr-1" value="" style="rounded=0;whiteSpace=wrap;html=1;fillColor=none;strokeWidth=3;dashed=1;" vertex="1" parent="1">
          <mxGeometry x="9.25" y="520" width="260.75" height="140" as="geometry" />
        </mxCell>
        <mxCell id="DfqyUwT9Ra00rR1DSbKr-2" value="supplier&lt;br&gt;cybersecurity&lt;br&gt;disclosure&lt;br&gt;statement&lt;br&gt;(AVCMDS)" style="shape=note;whiteSpace=wrap;html=1;backgroundOutline=1;darkOpacity=0.05;size=26;fillColor=#FFFFCC;" vertex="1" parent="1">
          <mxGeometry x="170" y="540" width="79.5" height="100" as="geometry" />
        </mxCell>
        <mxCell id="DfqyUwT9Ra00rR1DSbKr-3" style="edgeStyle=none;rounded=0;orthogonalLoop=1;jettySize=auto;html=1;strokeColor=#6600CC;strokeWidth=3;" edge="1" parent="1" source="DfqyUwT9Ra00rR1DSbKr-4" target="DfqyUwT9Ra00rR1DSbKr-2">
          <mxGeometry relative="1" as="geometry">
            <mxPoint x="350" y="590" as="targetPoint" />
          </mxGeometry>
        </mxCell>
        <mxCell id="DfqyUwT9Ra00rR1DSbKr-4" value="AVCMDS&lt;br&gt;worksheet&lt;br&gt;template" style="shape=internalStorage;whiteSpace=wrap;html=1;backgroundOutline=1;fillColor=#d5e8d4;strokeColor=#000000;gradientColor=#97d077;" vertex="1" parent="1">
          <mxGeometry x="30" y="540" width="80" height="100" as="geometry" />
        </mxCell>
        <mxCell id="DfqyUwT9Ra00rR1DSbKr-5" style="edgeStyle=none;rounded=0;orthogonalLoop=1;jettySize=auto;html=1;strokeColor=#b85450;strokeWidth=3;fillColor=#f8cecc;" edge="1" parent="1" source="DfqyUwT9Ra00rR1DSbKr-6" target="DfqyUwT9Ra00rR1DSbKr-1">
          <mxGeometry relative="1" as="geometry" />
        </mxCell>
        <mxCell id="DfqyUwT9Ra00rR1DSbKr-6" value="AVCMDS - autonomous vehicle cybersecurity manufacturer disclosure statement" style="shape=note;whiteSpace=wrap;html=1;backgroundOutline=1;darkOpacity=0.05;size=26;fillColor=#CCCCCC;strokeColor=#000000;" vertex="1" parent="1">
          <mxGeometry x="-290" y="540" width="79.5" height="100" as="geometry" />
        </mxCell>
        <mxCell id="DfqyUwT9Ra00rR1DSbKr-7" style="edgeStyle=none;rounded=0;orthogonalLoop=1;jettySize=auto;html=1;entryX=0;entryY=0.5;entryDx=0;entryDy=0;strokeColor=#6600CC;strokeWidth=3;fontSize=14;" edge="1" parent="1" source="DfqyUwT9Ra00rR1DSbKr-8" target="DfqyUwT9Ra00rR1DSbKr-1">
          <mxGeometry relative="1" as="geometry" />
        </mxCell>
        <mxCell id="DfqyUwT9Ra00rR1DSbKr-8" value="Autonomous Vehicle Cybersecurity Manufacturer Disclosure Statement" style="shape=note;whiteSpace=wrap;html=1;backgroundOutline=1;darkOpacity=0.05;size=26;fillColor=#d5e8d4;strokeColor=#82b366;" vertex="1" parent="1">
          <mxGeometry x="-130" y="450" width="79.5" height="100" as="geometry" />
        </mxCell>
      </root>
    </mxGraphModel>
  </diagram>
  <diagram id="QKKfsUFKIv0TPzcQ1dDM" name="vendor process mapping">
    <mxGraphModel dx="2443" dy="1227" grid="1" gridSize="10" guides="1" tooltips="1" connect="1" arrows="1" fold="1" page="0" pageScale="1" pageWidth="850" pageHeight="1100" math="0" shadow="0">
      <root>
        <mxCell id="0" />
        <mxCell id="1" parent="0" />
        <mxCell id="cm-uUrD4VrUvto7fBAsC-1" value="" style="rounded=0;whiteSpace=wrap;html=1;fillColor=none;strokeWidth=3;dashed=1;" vertex="1" parent="1">
          <mxGeometry x="-100.75" y="660" width="260.75" height="140" as="geometry" />
        </mxCell>
        <mxCell id="cm-uUrD4VrUvto7fBAsC-2" value="vendor process - AVCDL&lt;br&gt;product mapping" style="shape=note;whiteSpace=wrap;html=1;backgroundOutline=1;darkOpacity=0.05;size=26;fillColor=#FFFFCC;dashed=1;" vertex="1" parent="1">
          <mxGeometry x="61.5" y="680" width="79.5" height="100" as="geometry" />
        </mxCell>
        <mxCell id="cm-uUrD4VrUvto7fBAsC-3" style="edgeStyle=none;rounded=0;orthogonalLoop=1;jettySize=auto;html=1;strokeColor=#6600CC;strokeWidth=3;entryX=0;entryY=0.5;entryDx=0;entryDy=0;" edge="1" parent="1" source="cm-uUrD4VrUvto7fBAsC-4" target="cm-uUrD4VrUvto7fBAsC-1">
          <mxGeometry relative="1" as="geometry" />
        </mxCell>
        <mxCell id="cm-uUrD4VrUvto7fBAsC-4" value="Understanding Supply Chain&lt;br&gt;Process&lt;br&gt;Mapping" style="shape=note;whiteSpace=wrap;html=1;backgroundOutline=1;darkOpacity=0.05;size=26;fillColor=#e1d5e7;strokeColor=#9673a6;" vertex="1" parent="1">
          <mxGeometry x="-240" y="680" width="79.5" height="100" as="geometry" />
        </mxCell>
        <mxCell id="cm-uUrD4VrUvto7fBAsC-5" style="edgeStyle=none;rounded=0;orthogonalLoop=1;jettySize=auto;html=1;entryX=0;entryY=0.5;entryDx=0;entryDy=0;entryPerimeter=0;strokeColor=#6600CC;strokeWidth=3;" edge="1" parent="1" source="cm-uUrD4VrUvto7fBAsC-6" target="cm-uUrD4VrUvto7fBAsC-2">
          <mxGeometry relative="1" as="geometry" />
        </mxCell>
        <mxCell id="cm-uUrD4VrUvto7fBAsC-6" value="vendor process - AVCDL product mapping template" style="shape=internalStorage;whiteSpace=wrap;html=1;backgroundOutline=1;fillColor=#d5e8d4;strokeColor=#000000;gradientColor=#97d077;" vertex="1" parent="1">
          <mxGeometry x="-80" y="680" width="80" height="100" as="geometry" />
        </mxCell>
      </root>
    </mxGraphModel>
  </diagram>
  <diagram id="AZHUpwOr94d9Eg-VPh2v" name="global catalog">
    <mxGraphModel dx="2443" dy="1227" grid="1" gridSize="10" guides="1" tooltips="1" connect="1" arrows="1" fold="1" page="0" pageScale="1" pageWidth="850" pageHeight="1100" math="0" shadow="0">
      <root>
        <mxCell id="0" />
        <mxCell id="1" parent="0" />
        <mxCell id="tJloYpq2C4XPv9buDE39-1" value="global&lt;br&gt;cybersecurity&lt;br&gt;requirements&lt;br&gt;catalog" style="shape=note;whiteSpace=wrap;html=1;backgroundOutline=1;darkOpacity=0.05;size=26;fillColor=#F19C99;" vertex="1" parent="1">
          <mxGeometry x="150" y="700" width="79.5" height="100" as="geometry" />
        </mxCell>
        <mxCell id="tJloYpq2C4XPv9buDE39-2" style="edgeStyle=none;rounded=0;orthogonalLoop=1;jettySize=auto;html=1;entryX=0;entryY=0.5;entryDx=0;entryDy=0;entryPerimeter=0;strokeColor=#6600CC;strokeWidth=3;" edge="1" source="tJloYpq2C4XPv9buDE39-3" target="tJloYpq2C4XPv9buDE39-1" parent="1">
          <mxGeometry relative="1" as="geometry" />
        </mxCell>
        <mxCell id="tJloYpq2C4XPv9buDE39-3" value="Global&lt;br&gt;Security&lt;br&gt;Requirements" style="shape=note;whiteSpace=wrap;html=1;backgroundOutline=1;darkOpacity=0.05;size=26;fillColor=#d5e8d4;strokeColor=#82b366;" vertex="1" parent="1">
          <mxGeometry x="10" y="770" width="79.5" height="100" as="geometry" />
        </mxCell>
        <mxCell id="tJloYpq2C4XPv9buDE39-4" style="edgeStyle=none;rounded=0;orthogonalLoop=1;jettySize=auto;html=1;entryX=0;entryY=0.5;entryDx=0;entryDy=0;entryPerimeter=0;strokeColor=#6600CC;strokeWidth=3;" edge="1" source="tJloYpq2C4XPv9buDE39-5" target="tJloYpq2C4XPv9buDE39-7" parent="1">
          <mxGeometry relative="1" as="geometry" />
        </mxCell>
        <mxCell id="tJloYpq2C4XPv9buDE39-5" value="Security&lt;br&gt;Requirements&lt;br&gt;Taxonomy" style="shape=note;whiteSpace=wrap;html=1;backgroundOutline=1;darkOpacity=0.05;size=26;fillColor=#d5e8d4;strokeColor=#82b366;" vertex="1" parent="1">
          <mxGeometry x="-120" y="620" width="79.5" height="100" as="geometry" />
        </mxCell>
        <mxCell id="tJloYpq2C4XPv9buDE39-6" style="edgeStyle=none;rounded=0;orthogonalLoop=1;jettySize=auto;html=1;entryX=0;entryY=0.5;entryDx=0;entryDy=0;entryPerimeter=0;strokeColor=#6600CC;strokeWidth=3;" edge="1" source="tJloYpq2C4XPv9buDE39-7" target="tJloYpq2C4XPv9buDE39-1" parent="1">
          <mxGeometry relative="1" as="geometry" />
        </mxCell>
        <mxCell id="tJloYpq2C4XPv9buDE39-7" value="cybersecurity requirements per&lt;br&gt;taxonomy" style="shape=note;whiteSpace=wrap;html=1;backgroundOutline=1;darkOpacity=0.05;size=26;fillColor=#dae8fc;strokeColor=#6c8ebf;" vertex="1" parent="1">
          <mxGeometry x="10" y="620" width="79.5" height="100" as="geometry" />
        </mxCell>
      </root>
    </mxGraphModel>
  </diagram>
  <diagram name="tailored requirements" id="kkUewraKdKXRhSwHifDS">
    <mxGraphModel dx="2600" dy="1286" grid="1" gridSize="10" guides="1" tooltips="1" connect="1" arrows="1" fold="1" page="0" pageScale="1" pageWidth="850" pageHeight="1100" math="0" shadow="0">
      <root>
        <mxCell id="NL8x8Igh0eekaGa_oQ4Z-0" />
        <mxCell id="NL8x8Igh0eekaGa_oQ4Z-1" parent="NL8x8Igh0eekaGa_oQ4Z-0" />
        <mxCell id="NL8x8Igh0eekaGa_oQ4Z-2" style="edgeStyle=none;rounded=0;orthogonalLoop=1;jettySize=auto;html=1;labelBackgroundColor=none;strokeColor=#FF8000;strokeWidth=3;dashed=1;entryX=0;entryY=0.5;entryDx=0;entryDy=0;entryPerimeter=0;" parent="NL8x8Igh0eekaGa_oQ4Z-1" source="NL8x8Igh0eekaGa_oQ4Z-3" target="NL8x8Igh0eekaGa_oQ4Z-6" edge="1">
          <mxGeometry relative="1" as="geometry">
            <mxPoint x="550" y="790" as="targetPoint" />
          </mxGeometry>
        </mxCell>
        <mxCell id="NL8x8Igh0eekaGa_oQ4Z-3" value="vendor process - AVCDL&lt;br&gt;product mapping" style="shape=note;whiteSpace=wrap;html=1;backgroundOutline=1;darkOpacity=0.05;size=26;fillColor=#FFFFCC;dashed=1;" parent="NL8x8Igh0eekaGa_oQ4Z-1" vertex="1">
          <mxGeometry x="2" y="650" width="79.5" height="100" as="geometry" />
        </mxCell>
        <mxCell id="NL8x8Igh0eekaGa_oQ4Z-4" style="edgeStyle=none;rounded=0;orthogonalLoop=1;jettySize=auto;html=1;entryX=0;entryY=0.5;entryDx=0;entryDy=0;entryPerimeter=0;labelBackgroundColor=none;strokeColor=#FF8000;strokeWidth=3;" parent="NL8x8Igh0eekaGa_oQ4Z-1" source="NL8x8Igh0eekaGa_oQ4Z-5" target="NL8x8Igh0eekaGa_oQ4Z-6" edge="1">
          <mxGeometry relative="1" as="geometry" />
        </mxCell>
        <mxCell id="NL8x8Igh0eekaGa_oQ4Z-5" value="supplier&lt;br&gt;self-reported&lt;br&gt;cybersecurity&lt;br&gt;process&lt;br&gt;maturity&lt;br&gt;(CMM)" style="shape=note;whiteSpace=wrap;html=1;backgroundOutline=1;darkOpacity=0.05;size=26;fillColor=#FFFFCC;" parent="NL8x8Igh0eekaGa_oQ4Z-1" vertex="1">
          <mxGeometry y="410" width="79.5" height="100" as="geometry" />
        </mxCell>
        <mxCell id="NL8x8Igh0eekaGa_oQ4Z-6" value="tailored&lt;br&gt;cybersecurity&lt;br&gt;requirements" style="shape=note;whiteSpace=wrap;html=1;backgroundOutline=1;darkOpacity=0.05;size=26;fillColor=#F19C99;" parent="NL8x8Igh0eekaGa_oQ4Z-1" vertex="1">
          <mxGeometry x="290" y="710" width="79.5" height="100" as="geometry" />
        </mxCell>
        <mxCell id="NL8x8Igh0eekaGa_oQ4Z-7" style="edgeStyle=none;rounded=0;orthogonalLoop=1;jettySize=auto;html=1;entryX=0;entryY=0.5;entryDx=0;entryDy=0;entryPerimeter=0;labelBackgroundColor=none;strokeColor=#FF8000;strokeWidth=3;" parent="NL8x8Igh0eekaGa_oQ4Z-1" source="NL8x8Igh0eekaGa_oQ4Z-8" target="NL8x8Igh0eekaGa_oQ4Z-6" edge="1">
          <mxGeometry relative="1" as="geometry" />
        </mxCell>
        <mxCell id="NL8x8Igh0eekaGa_oQ4Z-8" value="supplier&lt;br&gt;cybersecurity&lt;br&gt;disclosure&lt;br&gt;statement&lt;br&gt;(AVCMDS)" style="shape=note;whiteSpace=wrap;html=1;backgroundOutline=1;darkOpacity=0.05;size=26;fillColor=#FFFFCC;" parent="NL8x8Igh0eekaGa_oQ4Z-1" vertex="1">
          <mxGeometry y="530" width="79.5" height="100" as="geometry" />
        </mxCell>
        <mxCell id="NL8x8Igh0eekaGa_oQ4Z-9" style="rounded=0;orthogonalLoop=1;jettySize=auto;html=1;strokeWidth=3;strokeColor=#FF8000;entryX=0;entryY=0.5;entryDx=0;entryDy=0;entryPerimeter=0;" parent="NL8x8Igh0eekaGa_oQ4Z-1" source="NL8x8Igh0eekaGa_oQ4Z-10" target="NL8x8Igh0eekaGa_oQ4Z-6" edge="1">
          <mxGeometry relative="1" as="geometry">
            <mxPoint x="450" y="490" as="targetPoint" />
          </mxGeometry>
        </mxCell>
        <mxCell id="NL8x8Igh0eekaGa_oQ4Z-10" value="global&lt;br&gt;cybersecurity&lt;br&gt;requirements&lt;br&gt;catalog" style="shape=note;whiteSpace=wrap;html=1;backgroundOutline=1;darkOpacity=0.05;size=26;fillColor=#F19C99;" parent="NL8x8Igh0eekaGa_oQ4Z-1" vertex="1">
          <mxGeometry y="1010" width="79.5" height="100" as="geometry" />
        </mxCell>
        <mxCell id="NL8x8Igh0eekaGa_oQ4Z-11" style="edgeStyle=none;rounded=0;orthogonalLoop=1;jettySize=auto;html=1;entryX=0;entryY=0.5;entryDx=0;entryDy=0;entryPerimeter=0;strokeColor=#6600CC;strokeWidth=3;fontSize=14;" parent="NL8x8Igh0eekaGa_oQ4Z-1" source="NL8x8Igh0eekaGa_oQ4Z-12" target="NL8x8Igh0eekaGa_oQ4Z-6" edge="1">
          <mxGeometry relative="1" as="geometry" />
        </mxCell>
        <mxCell id="NL8x8Igh0eekaGa_oQ4Z-12" value="Element-level&lt;br&gt;Security&lt;br&gt;Requirements" style="shape=note;whiteSpace=wrap;html=1;backgroundOutline=1;darkOpacity=0.05;size=28;fillColor=#d5e8d4;strokeColor=#82b366;" parent="NL8x8Igh0eekaGa_oQ4Z-1" vertex="1">
          <mxGeometry x="2" y="770" width="79.5" height="100" as="geometry" />
        </mxCell>
        <mxCell id="NL8x8Igh0eekaGa_oQ4Z-13" style="rounded=0;orthogonalLoop=1;jettySize=auto;html=1;entryX=0;entryY=0.5;entryDx=0;entryDy=0;entryPerimeter=0;strokeColor=#6600CC;strokeWidth=3;" parent="NL8x8Igh0eekaGa_oQ4Z-1" source="NL8x8Igh0eekaGa_oQ4Z-14" target="NL8x8Igh0eekaGa_oQ4Z-6" edge="1">
          <mxGeometry relative="1" as="geometry" />
        </mxCell>
        <mxCell id="NL8x8Igh0eekaGa_oQ4Z-14" value="Element Cybersecurity Relevancy" style="shape=note;whiteSpace=wrap;html=1;backgroundOutline=1;darkOpacity=0.05;size=26;fillColor=#d5e8d4;strokeColor=#82b366;" parent="NL8x8Igh0eekaGa_oQ4Z-1" vertex="1">
          <mxGeometry x="2" y="890" width="79.5" height="100" as="geometry" />
        </mxCell>
      </root>
    </mxGraphModel>
  </diagram>
  <diagram id="gKuv7VG9a-zSSh3RsMNO" name="CIA">
    <mxGraphModel dx="2245" dy="1037" grid="1" gridSize="10" guides="1" tooltips="1" connect="1" arrows="1" fold="1" page="0" pageScale="1" pageWidth="850" pageHeight="1100" math="0" shadow="0">
      <root>
        <mxCell id="0" />
        <mxCell id="1" parent="0" />
        <mxCell id="43pmJVYHmvk2_ivh0pRA-1" value="" style="rounded=0;whiteSpace=wrap;html=1;fillColor=none;strokeWidth=3;dashed=1;" parent="1" vertex="1">
          <mxGeometry x="120" y="1180" width="260" height="140" as="geometry" />
        </mxCell>
        <mxCell id="43pmJVYHmvk2_ivh0pRA-2" value="cybersecurity&lt;br&gt;interface&lt;br&gt;agreement&lt;br&gt;(CIA)" style="shape=note;whiteSpace=wrap;html=1;backgroundOutline=1;darkOpacity=0.05;size=26;gradientColor=#F19C99;gradientDirection=east;fillColor=#FFFFCC;" parent="1" vertex="1">
          <mxGeometry x="280" y="1200" width="79.5" height="100" as="geometry" />
        </mxCell>
        <mxCell id="43pmJVYHmvk2_ivh0pRA-5" style="edgeStyle=none;rounded=0;orthogonalLoop=1;jettySize=auto;html=1;entryX=0;entryY=0.5;entryDx=0;entryDy=0;entryPerimeter=0;strokeColor=#6600CC;strokeWidth=3;" parent="1" source="43pmJVYHmvk2_ivh0pRA-6" target="43pmJVYHmvk2_ivh0pRA-2" edge="1">
          <mxGeometry relative="1" as="geometry" />
        </mxCell>
        <mxCell id="43pmJVYHmvk2_ivh0pRA-6" value="Cybersecurity&lt;br&gt;Interface&lt;br&gt;Agreement&lt;br&gt;template" style="shape=internalStorage;whiteSpace=wrap;html=1;backgroundOutline=1;fillColor=#d5e8d4;strokeColor=#000000;gradientColor=#97d077;" parent="1" vertex="1">
          <mxGeometry x="139.5" y="1200" width="80" height="100" as="geometry" />
        </mxCell>
        <mxCell id="43pmJVYHmvk2_ivh0pRA-7" style="edgeStyle=none;rounded=0;orthogonalLoop=1;jettySize=auto;html=1;entryX=0;entryY=0.5;entryDx=0;entryDy=0;strokeColor=#6600CC;strokeWidth=3;" parent="1" source="43pmJVYHmvk2_ivh0pRA-8" target="43pmJVYHmvk2_ivh0pRA-1" edge="1">
          <mxGeometry relative="1" as="geometry" />
        </mxCell>
        <mxCell id="43pmJVYHmvk2_ivh0pRA-8" value="Understanding Cybersecurity Interface&lt;br&gt;Agreements" style="shape=note;whiteSpace=wrap;html=1;backgroundOutline=1;darkOpacity=0.05;size=26;fillColor=#e1d5e7;strokeColor=#9673a6;" parent="1" vertex="1">
          <mxGeometry x="-40" y="1130" width="79.5" height="100" as="geometry" />
        </mxCell>
        <mxCell id="43pmJVYHmvk2_ivh0pRA-9" value="yours, mine, and ours - the AVCDL and cybersecurity interface agreements" style="shape=note;whiteSpace=wrap;html=1;backgroundOutline=1;darkOpacity=0.05;size=26;fillColor=#CCCCCC;strokeColor=#000000;" parent="1" vertex="1">
          <mxGeometry x="-170" y="1200" width="79.5" height="100" as="geometry" />
        </mxCell>
        <mxCell id="43pmJVYHmvk2_ivh0pRA-10" style="edgeStyle=none;rounded=0;orthogonalLoop=1;jettySize=auto;html=1;strokeColor=#b85450;strokeWidth=3;fillColor=#f8cecc;" parent="1" source="43pmJVYHmvk2_ivh0pRA-9" target="43pmJVYHmvk2_ivh0pRA-1" edge="1">
          <mxGeometry relative="1" as="geometry" />
        </mxCell>
        <mxCell id="43pmJVYHmvk2_ivh0pRA-11" style="edgeStyle=none;rounded=0;orthogonalLoop=1;jettySize=auto;html=1;entryX=0;entryY=0.5;entryDx=0;entryDy=0;strokeColor=#6600CC;strokeWidth=3;fontSize=14;" parent="1" source="43pmJVYHmvk2_ivh0pRA-12" target="43pmJVYHmvk2_ivh0pRA-1" edge="1">
          <mxGeometry relative="1" as="geometry" />
        </mxCell>
        <mxCell id="43pmJVYHmvk2_ivh0pRA-12" value="Incident&lt;br&gt;Response&lt;br&gt;Plan" style="shape=note;whiteSpace=wrap;html=1;backgroundOutline=1;darkOpacity=0.05;size=26;fillColor=#d5e8d4;strokeColor=#82b366;" parent="1" vertex="1">
          <mxGeometry x="-40" y="1270" width="79.5" height="100" as="geometry" />
        </mxCell>
        <mxCell id="gGjPkNEuKXKLGTw7eS8o-2" style="edgeStyle=none;rounded=0;orthogonalLoop=1;jettySize=auto;html=1;strokeColor=#FF8000;strokeWidth=3;entryX=0;entryY=0.5;entryDx=0;entryDy=0;entryPerimeter=0;" parent="1" source="43pmJVYHmvk2_ivh0pRA-2" target="gGjPkNEuKXKLGTw7eS8o-7" edge="1">
          <mxGeometry relative="1" as="geometry">
            <mxPoint x="650" y="220" as="targetPoint" />
            <mxPoint x="359.5" y="1213.592839300583" as="sourcePoint" />
          </mxGeometry>
        </mxCell>
        <mxCell id="gGjPkNEuKXKLGTw7eS8o-5" style="edgeStyle=none;rounded=0;orthogonalLoop=1;jettySize=auto;html=1;entryX=0;entryY=0.5;entryDx=0;entryDy=0;entryPerimeter=0;strokeColor=#6600CC;strokeWidth=3;" parent="1" source="gGjPkNEuKXKLGTw7eS8o-6" target="gGjPkNEuKXKLGTw7eS8o-7" edge="1">
          <mxGeometry relative="1" as="geometry" />
        </mxCell>
        <mxCell id="gGjPkNEuKXKLGTw7eS8o-6" value="Cybersecurity&lt;br&gt;Interface&lt;br&gt;Agreement&lt;br&gt;summary&lt;br&gt;template" style="shape=internalStorage;whiteSpace=wrap;html=1;backgroundOutline=1;fillColor=#d5e8d4;strokeColor=#000000;gradientColor=#97d077;" parent="1" vertex="1">
          <mxGeometry x="330" y="1050" width="80" height="100" as="geometry" />
        </mxCell>
        <mxCell id="gGjPkNEuKXKLGTw7eS8o-7" value="Cybersecurity&lt;br&gt;Interface&lt;br&gt;Agreement&lt;br&gt;Summary" style="shape=note;whiteSpace=wrap;html=1;backgroundOutline=1;darkOpacity=0.05;size=26;fillColor=#F19C99;" parent="1" vertex="1">
          <mxGeometry x="480" y="1050" width="79.5" height="100" as="geometry" />
        </mxCell>
        <mxCell id="EaXC82ebyKKxKTa-UC1p-1" value="Cybersecurity Interface Agreement" style="shape=note;whiteSpace=wrap;html=1;backgroundOutline=1;darkOpacity=0.05;size=26;fillColor=#d5e8d4;strokeColor=#82b366;" parent="1" vertex="1">
          <mxGeometry x="-40" y="1400" width="79.5" height="100" as="geometry" />
        </mxCell>
        <mxCell id="EaXC82ebyKKxKTa-UC1p-2" style="edgeStyle=none;rounded=0;orthogonalLoop=1;jettySize=auto;html=1;entryX=0;entryY=0.5;entryDx=0;entryDy=0;strokeColor=#6600CC;strokeWidth=3;fontSize=14;" parent="1" source="EaXC82ebyKKxKTa-UC1p-1" target="43pmJVYHmvk2_ivh0pRA-1" edge="1">
          <mxGeometry relative="1" as="geometry">
            <mxPoint x="120" y="1270" as="targetPoint" />
          </mxGeometry>
        </mxCell>
        <mxCell id="6rFi5r02XdLszJcca1oy-1" style="edgeStyle=none;rounded=0;orthogonalLoop=1;jettySize=auto;html=1;entryX=0;entryY=0.5;entryDx=0;entryDy=0;entryPerimeter=0;labelBackgroundColor=none;strokeColor=#FF8000;strokeWidth=3;" edge="1" parent="1" source="6rFi5r02XdLszJcca1oy-2" target="43pmJVYHmvk2_ivh0pRA-2">
          <mxGeometry relative="1" as="geometry">
            <mxPoint x="439.5" y="1630" as="targetPoint" />
          </mxGeometry>
        </mxCell>
        <mxCell id="6rFi5r02XdLszJcca1oy-2" value="tailored&lt;br&gt;cybersecurity&lt;br&gt;requirements" style="shape=note;whiteSpace=wrap;html=1;backgroundOutline=1;darkOpacity=0.05;size=26;fillColor=#F19C99;" vertex="1" parent="1">
          <mxGeometry x="139.5" y="1050" width="79.5" height="100" as="geometry" />
        </mxCell>
      </root>
    </mxGraphModel>
  </diagram>
  <diagram id="eWLdAgx9v8crCha94HGA" name="TARA">
    <mxGraphModel dx="2443" dy="1227" grid="1" gridSize="10" guides="1" tooltips="1" connect="1" arrows="1" fold="1" page="0" pageScale="1" pageWidth="850" pageHeight="1100" math="0" shadow="0">
      <root>
        <mxCell id="0" />
        <mxCell id="1" parent="0" />
        <mxCell id="1V5Xtv8HwGVZzOevvxve-1" value="" style="rounded=0;whiteSpace=wrap;html=1;fillColor=none;strokeWidth=3;dashed=1;" vertex="1" parent="1">
          <mxGeometry x="-120" y="620" width="370" height="400" as="geometry" />
        </mxCell>
        <mxCell id="1V5Xtv8HwGVZzOevvxve-2" value="threat&lt;br&gt;analysis&lt;br&gt;risk&lt;br&gt;assessment&lt;br&gt;(TARA)" style="shape=note;whiteSpace=wrap;html=1;backgroundOutline=1;darkOpacity=0.05;size=26;gradientColor=#F19C99;gradientDirection=east;fillColor=#FFFFCC;" vertex="1" parent="1">
          <mxGeometry x="150" y="770" width="79.5" height="100" as="geometry" />
        </mxCell>
        <mxCell id="1V5Xtv8HwGVZzOevvxve-4" style="edgeStyle=none;rounded=0;orthogonalLoop=1;jettySize=auto;html=1;entryX=0;entryY=0.5;entryDx=0;entryDy=0;entryPerimeter=0;labelBackgroundColor=none;strokeColor=#FF8000;strokeWidth=3;" edge="1" parent="1" source="1V5Xtv8HwGVZzOevvxve-6" target="1V5Xtv8HwGVZzOevvxve-2">
          <mxGeometry relative="1" as="geometry" />
        </mxCell>
        <mxCell id="1V5Xtv8HwGVZzOevvxve-6" value="cybersecurity&lt;br&gt;interface&lt;br&gt;agreement&lt;br&gt;(CIA)" style="shape=note;whiteSpace=wrap;html=1;backgroundOutline=1;darkOpacity=0.05;size=26;gradientColor=#F19C99;gradientDirection=east;fillColor=#FFFFCC;" vertex="1" parent="1">
          <mxGeometry x="-100" y="1040" width="79.5" height="100" as="geometry" />
        </mxCell>
        <mxCell id="1V5Xtv8HwGVZzOevvxve-13" style="edgeStyle=none;rounded=0;orthogonalLoop=1;jettySize=auto;html=1;strokeColor=#6600CC;strokeWidth=3;entryX=0;entryY=0.5;entryDx=0;entryDy=0;" edge="1" parent="1" source="1V5Xtv8HwGVZzOevvxve-14" target="1V5Xtv8HwGVZzOevvxve-1">
          <mxGeometry relative="1" as="geometry">
            <mxPoint x="109.5" y="-5" as="targetPoint" />
          </mxGeometry>
        </mxCell>
        <mxCell id="1V5Xtv8HwGVZzOevvxve-14" value="Understanding TARA in an AVCDL Context" style="shape=note;whiteSpace=wrap;html=1;backgroundOutline=1;darkOpacity=0.05;size=26;fillColor=#e1d5e7;strokeColor=#9673a6;" vertex="1" parent="1">
          <mxGeometry x="-240" y="770" width="79.5" height="100" as="geometry" />
        </mxCell>
        <mxCell id="1V5Xtv8HwGVZzOevvxve-15" style="edgeStyle=none;rounded=0;orthogonalLoop=1;jettySize=auto;html=1;entryX=0;entryY=0.5;entryDx=0;entryDy=0;entryPerimeter=0;strokeColor=#6600CC;strokeWidth=3;" edge="1" parent="1" source="1V5Xtv8HwGVZzOevvxve-16" target="1V5Xtv8HwGVZzOevvxve-2">
          <mxGeometry relative="1" as="geometry" />
        </mxCell>
        <mxCell id="1V5Xtv8HwGVZzOevvxve-16" value="Threat Modeling Report" style="shape=note;whiteSpace=wrap;html=1;backgroundOutline=1;darkOpacity=0.05;size=26;fillColor=#d5e8d4;strokeColor=#82b366;" vertex="1" parent="1">
          <mxGeometry x="-100" y="640" width="79.5" height="100" as="geometry" />
        </mxCell>
        <mxCell id="1V5Xtv8HwGVZzOevvxve-17" style="edgeStyle=none;rounded=0;orthogonalLoop=1;jettySize=auto;html=1;entryX=0;entryY=0.5;entryDx=0;entryDy=0;entryPerimeter=0;strokeColor=#6600CC;strokeWidth=3;" edge="1" parent="1" source="1V5Xtv8HwGVZzOevvxve-18" target="1V5Xtv8HwGVZzOevvxve-2">
          <mxGeometry relative="1" as="geometry" />
        </mxCell>
        <mxCell id="1V5Xtv8HwGVZzOevvxve-18" value="Threat&lt;br&gt;Report" style="shape=note;whiteSpace=wrap;html=1;backgroundOutline=1;darkOpacity=0.05;size=26;fillColor=#d5e8d4;strokeColor=#82b366;" vertex="1" parent="1">
          <mxGeometry x="-100" y="900" width="79.5" height="100" as="geometry" />
        </mxCell>
        <mxCell id="1V5Xtv8HwGVZzOevvxve-19" style="edgeStyle=none;rounded=0;orthogonalLoop=1;jettySize=auto;html=1;entryX=0;entryY=0.5;entryDx=0;entryDy=0;entryPerimeter=0;strokeColor=#6600CC;strokeWidth=3;" edge="1" parent="1" source="1V5Xtv8HwGVZzOevvxve-20" target="1V5Xtv8HwGVZzOevvxve-2">
          <mxGeometry relative="1" as="geometry" />
        </mxCell>
        <mxCell id="1V5Xtv8HwGVZzOevvxve-20" value="Ranked - Risked&lt;br&gt;Threat&lt;br&gt;Report" style="shape=note;whiteSpace=wrap;html=1;backgroundOutline=1;darkOpacity=0.05;size=26;fillColor=#d5e8d4;strokeColor=#82b366;" vertex="1" parent="1">
          <mxGeometry x="-100" y="770" width="79.5" height="100" as="geometry" />
        </mxCell>
      </root>
    </mxGraphModel>
  </diagram>
  <diagram id="TsUM4Hyzbf2SX7KzC1wc" name="SLA">
    <mxGraphModel dx="2443" dy="427" grid="1" gridSize="10" guides="1" tooltips="1" connect="1" arrows="1" fold="1" page="0" pageScale="1" pageWidth="850" pageHeight="1100" math="0" shadow="0">
      <root>
        <mxCell id="0" />
        <mxCell id="1" parent="0" />
        <mxCell id="k_Dk0AFUSj6NbUs-hqhd-1" style="edgeStyle=none;rounded=0;orthogonalLoop=1;jettySize=auto;html=1;entryX=0;entryY=0.5;entryDx=0;entryDy=0;entryPerimeter=0;labelBackgroundColor=none;strokeColor=#FF8000;strokeWidth=3;exitX=0.999;exitY=0.496;exitDx=0;exitDy=0;exitPerimeter=0;" edge="1" parent="1" source="k_Dk0AFUSj6NbUs-hqhd-2" target="k_Dk0AFUSj6NbUs-hqhd-3">
          <mxGeometry relative="1" as="geometry">
            <mxPoint x="170.5" y="1180" as="targetPoint" />
          </mxGeometry>
        </mxCell>
        <mxCell id="k_Dk0AFUSj6NbUs-hqhd-2" value="cybersecurity&lt;br&gt;interface&lt;br&gt;agreement&lt;br&gt;(CIA)" style="shape=note;whiteSpace=wrap;html=1;backgroundOutline=1;darkOpacity=0.05;size=26;gradientColor=#F19C99;gradientDirection=east;fillColor=#FFFFCC;" vertex="1" parent="1">
          <mxGeometry x="-10" y="1210" width="79.5" height="100" as="geometry" />
        </mxCell>
        <mxCell id="k_Dk0AFUSj6NbUs-hqhd-3" value="service&lt;br&gt;level&lt;br&gt;agreement&lt;br&gt;(SLA)" style="shape=note;whiteSpace=wrap;html=1;backgroundOutline=1;darkOpacity=0.05;size=26;gradientColor=#F19C99;gradientDirection=east;fillColor=#FFFFCC;" vertex="1" parent="1">
          <mxGeometry x="180" y="1210" width="79.5" height="100" as="geometry" />
        </mxCell>
      </root>
    </mxGraphModel>
  </diagram>
  <diagram id="pnnP1e5GFpZmLDQ5-zs2" name="SBOM">
    <mxGraphModel dx="2443" dy="427" grid="1" gridSize="10" guides="1" tooltips="1" connect="1" arrows="1" fold="1" page="0" pageScale="1" pageWidth="850" pageHeight="1100" math="0" shadow="0">
      <root>
        <mxCell id="0" />
        <mxCell id="1" parent="0" />
        <mxCell id="MErWp2t-iMxRHJZnjfWV-1" value="cybersecurity&lt;br&gt;bill of&lt;br&gt;materials&lt;br&gt;(SBOM)" style="shape=note;whiteSpace=wrap;html=1;backgroundOutline=1;darkOpacity=0.05;size=26;fillColor=#FFFFCC;" vertex="1" parent="1">
          <mxGeometry x="130" y="1410" width="79.5" height="100" as="geometry" />
        </mxCell>
        <mxCell id="MErWp2t-iMxRHJZnjfWV-3" style="edgeStyle=none;rounded=0;orthogonalLoop=1;jettySize=auto;html=1;entryX=0;entryY=0.5;entryDx=0;entryDy=0;entryPerimeter=0;labelBackgroundColor=none;strokeColor=#FF8000;strokeWidth=3;" edge="1" parent="1" source="MErWp2t-iMxRHJZnjfWV-4" target="MErWp2t-iMxRHJZnjfWV-1">
          <mxGeometry relative="1" as="geometry" />
        </mxCell>
        <mxCell id="MErWp2t-iMxRHJZnjfWV-4" value="cybersecurity&lt;br&gt;interface&lt;br&gt;agreement&lt;br&gt;(CIA)" style="shape=note;whiteSpace=wrap;html=1;backgroundOutline=1;darkOpacity=0.05;size=26;gradientColor=#F19C99;gradientDirection=east;fillColor=#FFFFCC;" vertex="1" parent="1">
          <mxGeometry x="-40" y="1410" width="79.5" height="100" as="geometry" />
        </mxCell>
        <mxCell id="MErWp2t-iMxRHJZnjfWV-6" style="edgeStyle=none;rounded=0;orthogonalLoop=1;jettySize=auto;html=1;entryX=0;entryY=0.5;entryDx=0;entryDy=0;entryPerimeter=0;strokeColor=#6600CC;strokeWidth=3;" edge="1" parent="1" source="MErWp2t-iMxRHJZnjfWV-7" target="MErWp2t-iMxRHJZnjfWV-1">
          <mxGeometry relative="1" as="geometry" />
        </mxCell>
        <mxCell id="MErWp2t-iMxRHJZnjfWV-7" value="Software Bill of Materials Lifecycle" style="shape=note;whiteSpace=wrap;html=1;backgroundOutline=1;darkOpacity=0.05;size=26;fillColor=#e1d5e7;strokeColor=#9673a6;" vertex="1" parent="1">
          <mxGeometry x="11" y="1580" width="79.5" height="100" as="geometry" />
        </mxCell>
      </root>
    </mxGraphModel>
  </diagram>
</mxfile>
